<?xml version="1.0" encoding="utf-8" standalone="no"?>
<!DOCTYPE svg PUBLIC "-//W3C//DTD SVG 1.1//EN"
  "http://www.w3.org/Graphics/SVG/1.1/DTD/svg11.dtd">
<svg xmlns:xlink="http://www.w3.org/1999/xlink" width="614.4pt" height="366.755938pt" viewBox="0 0 614.4 366.755938" xmlns="http://www.w3.org/2000/svg" version="1.1">
 <metadata>
  <rdf:RDF xmlns:dc="http://purl.org/dc/elements/1.1/" xmlns:cc="http://creativecommons.org/ns#" xmlns:rdf="http://www.w3.org/1999/02/22-rdf-syntax-ns#">
   <cc:Work>
    <dc:type rdf:resource="http://purl.org/dc/dcmitype/StillImage"/>
    <dc:date>2023-04-02T13:18:36.319078</dc:date>
    <dc:format>image/svg+xml</dc:format>
    <dc:creator>
     <cc:Agent>
      <dc:title>Matplotlib v3.5.0, https://matplotlib.org/</dc:title>
     </cc:Agent>
    </dc:creator>
   </cc:Work>
  </rdf:RDF>
 </metadata>
 <defs>
  <style type="text/css">*{stroke-linejoin: round; stroke-linecap: butt}</style>
 </defs>
 <g id="figure_1">
  <g id="patch_1">
   <path d="M 0 366.755938 
L 614.4 366.755938 
L 614.4 0 
L 0 0 
z
" style="fill: #ffffff"/>
  </g>
  <g id="axes_1">
   <g id="patch_2">
    <path d="M 49.2 339.84 
L 607.2 339.84 
L 607.2 7.2 
L 49.2 7.2 
z
" style="fill: #ffffff"/>
   </g>
   <g id="matplotlib.axis_1">
    <g id="xtick_1">
     <g id="line2d_1">
      <defs>
       <path id="m5370f27cde" d="M 0 0 
L 0 3.5 
" style="stroke: #000000; stroke-width: 0.8"/>
      </defs>
      <g>
       <use xlink:href="#m5370f27cde" x="74.563636" y="339.84" style="stroke: #000000; stroke-width: 0.8"/>
      </g>
     </g>
     <g id="text_1">
      <!-- 0 -->
      <g transform="translate(71.063636 356.56125)scale(0.14 -0.14)">
       <defs>
        <path id="TimesNewRomanPSMT-30" d="M 231 2094 
Q 231 2819 450 3342 
Q 669 3866 1031 4122 
Q 1313 4325 1613 4325 
Q 2100 4325 2488 3828 
Q 2972 3213 2972 2159 
Q 2972 1422 2759 906 
Q 2547 391 2217 158 
Q 1888 -75 1581 -75 
Q 975 -75 572 641 
Q 231 1244 231 2094 
z
M 844 2016 
Q 844 1141 1059 588 
Q 1238 122 1591 122 
Q 1759 122 1940 273 
Q 2122 425 2216 781 
Q 2359 1319 2359 2297 
Q 2359 3022 2209 3506 
Q 2097 3866 1919 4016 
Q 1791 4119 1609 4119 
Q 1397 4119 1231 3928 
Q 1006 3669 925 3112 
Q 844 2556 844 2016 
z
" transform="scale(0.015625)"/>
       </defs>
       <use xlink:href="#TimesNewRomanPSMT-30"/>
      </g>
     </g>
    </g>
    <g id="xtick_2">
     <g id="line2d_2">
      <g>
       <use xlink:href="#m5370f27cde" x="177.042975" y="339.84" style="stroke: #000000; stroke-width: 0.8"/>
      </g>
     </g>
     <g id="text_2">
      <!-- 20 -->
      <g transform="translate(170.042975 356.56125)scale(0.14 -0.14)">
       <defs>
        <path id="TimesNewRomanPSMT-32" d="M 2934 816 
L 2638 0 
L 138 0 
L 138 116 
Q 1241 1122 1691 1759 
Q 2141 2397 2141 2925 
Q 2141 3328 1894 3587 
Q 1647 3847 1303 3847 
Q 991 3847 742 3664 
Q 494 3481 375 3128 
L 259 3128 
Q 338 3706 661 4015 
Q 984 4325 1469 4325 
Q 1984 4325 2329 3994 
Q 2675 3663 2675 3213 
Q 2675 2891 2525 2569 
Q 2294 2063 1775 1497 
Q 997 647 803 472 
L 1909 472 
Q 2247 472 2383 497 
Q 2519 522 2628 598 
Q 2738 675 2819 816 
L 2934 816 
z
" transform="scale(0.015625)"/>
       </defs>
       <use xlink:href="#TimesNewRomanPSMT-32"/>
       <use xlink:href="#TimesNewRomanPSMT-30" x="50"/>
      </g>
     </g>
    </g>
    <g id="xtick_3">
     <g id="line2d_3">
      <g>
       <use xlink:href="#m5370f27cde" x="279.522314" y="339.84" style="stroke: #000000; stroke-width: 0.8"/>
      </g>
     </g>
     <g id="text_3">
      <!-- 40 -->
      <g transform="translate(272.522314 356.56125)scale(0.14 -0.14)">
       <defs>
        <path id="TimesNewRomanPSMT-34" d="M 2978 1563 
L 2978 1119 
L 2409 1119 
L 2409 0 
L 1894 0 
L 1894 1119 
L 100 1119 
L 100 1519 
L 2066 4325 
L 2409 4325 
L 2409 1563 
L 2978 1563 
z
M 1894 1563 
L 1894 3666 
L 406 1563 
L 1894 1563 
z
" transform="scale(0.015625)"/>
       </defs>
       <use xlink:href="#TimesNewRomanPSMT-34"/>
       <use xlink:href="#TimesNewRomanPSMT-30" x="50"/>
      </g>
     </g>
    </g>
    <g id="xtick_4">
     <g id="line2d_4">
      <g>
       <use xlink:href="#m5370f27cde" x="382.001653" y="339.84" style="stroke: #000000; stroke-width: 0.8"/>
      </g>
     </g>
     <g id="text_4">
      <!-- 60 -->
      <g transform="translate(375.001653 356.56125)scale(0.14 -0.14)">
       <defs>
        <path id="TimesNewRomanPSMT-36" d="M 2869 4325 
L 2869 4209 
Q 2456 4169 2195 4045 
Q 1934 3922 1679 3669 
Q 1425 3416 1258 3105 
Q 1091 2794 978 2366 
Q 1428 2675 1881 2675 
Q 2316 2675 2634 2325 
Q 2953 1975 2953 1425 
Q 2953 894 2631 456 
Q 2244 -75 1606 -75 
Q 1172 -75 869 213 
Q 275 772 275 1663 
Q 275 2231 503 2743 
Q 731 3256 1154 3653 
Q 1578 4050 1965 4187 
Q 2353 4325 2688 4325 
L 2869 4325 
z
M 925 2138 
Q 869 1716 869 1456 
Q 869 1156 980 804 
Q 1091 453 1309 247 
Q 1469 100 1697 100 
Q 1969 100 2183 356 
Q 2397 613 2397 1088 
Q 2397 1622 2184 2012 
Q 1972 2403 1581 2403 
Q 1463 2403 1327 2353 
Q 1191 2303 925 2138 
z
" transform="scale(0.015625)"/>
       </defs>
       <use xlink:href="#TimesNewRomanPSMT-36"/>
       <use xlink:href="#TimesNewRomanPSMT-30" x="50"/>
      </g>
     </g>
    </g>
    <g id="xtick_5">
     <g id="line2d_5">
      <g>
       <use xlink:href="#m5370f27cde" x="484.480992" y="339.84" style="stroke: #000000; stroke-width: 0.8"/>
      </g>
     </g>
     <g id="text_5">
      <!-- 80 -->
      <g transform="translate(477.480992 356.56125)scale(0.14 -0.14)">
       <defs>
        <path id="TimesNewRomanPSMT-38" d="M 1228 2134 
Q 725 2547 579 2797 
Q 434 3047 434 3316 
Q 434 3728 753 4026 
Q 1072 4325 1600 4325 
Q 2113 4325 2425 4047 
Q 2738 3769 2738 3413 
Q 2738 3175 2569 2928 
Q 2400 2681 1866 2347 
Q 2416 1922 2594 1678 
Q 2831 1359 2831 1006 
Q 2831 559 2490 242 
Q 2150 -75 1597 -75 
Q 994 -75 656 303 
Q 388 606 388 966 
Q 388 1247 577 1523 
Q 766 1800 1228 2134 
z
M 1719 2469 
Q 2094 2806 2194 3001 
Q 2294 3197 2294 3444 
Q 2294 3772 2109 3958 
Q 1925 4144 1606 4144 
Q 1288 4144 1088 3959 
Q 888 3775 888 3528 
Q 888 3366 970 3203 
Q 1053 3041 1206 2894 
L 1719 2469 
z
M 1375 2016 
Q 1116 1797 991 1539 
Q 866 1281 866 981 
Q 866 578 1086 336 
Q 1306 94 1647 94 
Q 1984 94 2187 284 
Q 2391 475 2391 747 
Q 2391 972 2272 1150 
Q 2050 1481 1375 2016 
z
" transform="scale(0.015625)"/>
       </defs>
       <use xlink:href="#TimesNewRomanPSMT-38"/>
       <use xlink:href="#TimesNewRomanPSMT-30" x="50"/>
      </g>
     </g>
    </g>
    <g id="xtick_6">
     <g id="line2d_6">
      <g>
       <use xlink:href="#m5370f27cde" x="586.960331" y="339.84" style="stroke: #000000; stroke-width: 0.8"/>
      </g>
     </g>
     <g id="text_6">
      <!-- 100 -->
      <g transform="translate(576.460331 356.56125)scale(0.14 -0.14)">
       <defs>
        <path id="TimesNewRomanPSMT-31" d="M 750 3822 
L 1781 4325 
L 1884 4325 
L 1884 747 
Q 1884 391 1914 303 
Q 1944 216 2037 169 
Q 2131 122 2419 116 
L 2419 0 
L 825 0 
L 825 116 
Q 1125 122 1212 167 
Q 1300 213 1334 289 
Q 1369 366 1369 747 
L 1369 3034 
Q 1369 3497 1338 3628 
Q 1316 3728 1258 3775 
Q 1200 3822 1119 3822 
Q 1003 3822 797 3725 
L 750 3822 
z
" transform="scale(0.015625)"/>
       </defs>
       <use xlink:href="#TimesNewRomanPSMT-31"/>
       <use xlink:href="#TimesNewRomanPSMT-30" x="50"/>
       <use xlink:href="#TimesNewRomanPSMT-30" x="100"/>
      </g>
     </g>
    </g>
   </g>
   <g id="matplotlib.axis_2">
    <g id="ytick_1">
     <g id="line2d_7">
      <defs>
       <path id="md7bec82d06" d="M 0 0 
L -3.5 0 
" style="stroke: #000000; stroke-width: 0.8"/>
      </defs>
      <g>
       <use xlink:href="#md7bec82d06" x="49.2" y="326.360269" style="stroke: #000000; stroke-width: 0.8"/>
      </g>
     </g>
     <g id="text_7">
      <!-- 0 -->
      <g transform="translate(35.2 331.220894)scale(0.14 -0.14)">
       <use xlink:href="#TimesNewRomanPSMT-30"/>
      </g>
     </g>
    </g>
    <g id="ytick_2">
     <g id="line2d_8">
      <g>
       <use xlink:href="#md7bec82d06" x="49.2" y="254.314366" style="stroke: #000000; stroke-width: 0.8"/>
      </g>
     </g>
     <g id="text_8">
      <!-- 10000 -->
      <g transform="translate(7.2 259.174991)scale(0.14 -0.14)">
       <use xlink:href="#TimesNewRomanPSMT-31"/>
       <use xlink:href="#TimesNewRomanPSMT-30" x="50"/>
       <use xlink:href="#TimesNewRomanPSMT-30" x="100"/>
       <use xlink:href="#TimesNewRomanPSMT-30" x="150"/>
       <use xlink:href="#TimesNewRomanPSMT-30" x="200"/>
      </g>
     </g>
    </g>
    <g id="ytick_3">
     <g id="line2d_9">
      <g>
       <use xlink:href="#md7bec82d06" x="49.2" y="182.268463" style="stroke: #000000; stroke-width: 0.8"/>
      </g>
     </g>
     <g id="text_9">
      <!-- 20000 -->
      <g transform="translate(7.2 187.129088)scale(0.14 -0.14)">
       <use xlink:href="#TimesNewRomanPSMT-32"/>
       <use xlink:href="#TimesNewRomanPSMT-30" x="50"/>
       <use xlink:href="#TimesNewRomanPSMT-30" x="100"/>
       <use xlink:href="#TimesNewRomanPSMT-30" x="150"/>
       <use xlink:href="#TimesNewRomanPSMT-30" x="200"/>
      </g>
     </g>
    </g>
    <g id="ytick_4">
     <g id="line2d_10">
      <g>
       <use xlink:href="#md7bec82d06" x="49.2" y="110.22256" style="stroke: #000000; stroke-width: 0.8"/>
      </g>
     </g>
     <g id="text_10">
      <!-- 30000 -->
      <g transform="translate(7.2 115.083185)scale(0.14 -0.14)">
       <defs>
        <path id="TimesNewRomanPSMT-33" d="M 325 3431 
Q 506 3859 782 4092 
Q 1059 4325 1472 4325 
Q 1981 4325 2253 3994 
Q 2459 3747 2459 3466 
Q 2459 3003 1878 2509 
Q 2269 2356 2469 2072 
Q 2669 1788 2669 1403 
Q 2669 853 2319 450 
Q 1863 -75 997 -75 
Q 569 -75 414 31 
Q 259 138 259 259 
Q 259 350 332 419 
Q 406 488 509 488 
Q 588 488 669 463 
Q 722 447 909 348 
Q 1097 250 1169 231 
Q 1284 197 1416 197 
Q 1734 197 1970 444 
Q 2206 691 2206 1028 
Q 2206 1275 2097 1509 
Q 2016 1684 1919 1775 
Q 1784 1900 1550 2001 
Q 1316 2103 1072 2103 
L 972 2103 
L 972 2197 
Q 1219 2228 1467 2375 
Q 1716 2522 1828 2728 
Q 1941 2934 1941 3181 
Q 1941 3503 1739 3701 
Q 1538 3900 1238 3900 
Q 753 3900 428 3381 
L 325 3431 
z
" transform="scale(0.015625)"/>
       </defs>
       <use xlink:href="#TimesNewRomanPSMT-33"/>
       <use xlink:href="#TimesNewRomanPSMT-30" x="50"/>
       <use xlink:href="#TimesNewRomanPSMT-30" x="100"/>
       <use xlink:href="#TimesNewRomanPSMT-30" x="150"/>
       <use xlink:href="#TimesNewRomanPSMT-30" x="200"/>
      </g>
     </g>
    </g>
    <g id="ytick_5">
     <g id="line2d_11">
      <g>
       <use xlink:href="#md7bec82d06" x="49.2" y="38.176657" style="stroke: #000000; stroke-width: 0.8"/>
      </g>
     </g>
     <g id="text_11">
      <!-- 40000 -->
      <g transform="translate(7.2 43.037282)scale(0.14 -0.14)">
       <use xlink:href="#TimesNewRomanPSMT-34"/>
       <use xlink:href="#TimesNewRomanPSMT-30" x="50"/>
       <use xlink:href="#TimesNewRomanPSMT-30" x="100"/>
       <use xlink:href="#TimesNewRomanPSMT-30" x="150"/>
       <use xlink:href="#TimesNewRomanPSMT-30" x="200"/>
      </g>
     </g>
    </g>
   </g>
   <g id="line2d_12">
    <path d="M 74.563636 22.32 
L 79.687603 108.968392 
L 84.81157 170.190604 
L 89.935537 234.488229 
L 95.059504 277.566565 
L 100.183471 287.013604 
L 105.307438 291.741103 
L 110.431405 297.271817 
L 115.555372 303.614079 
L 120.679339 303.917362 
L 125.803306 302.506498 
L 130.927273 306.052468 
L 136.05124 307.739589 
L 141.175207 309.073555 
L 146.299174 310.197855 
L 151.42314 311.030793 
L 156.547107 311.244169 
L 161.671074 309.42689 
L 166.795041 313.302934 
L 171.919008 311.990996 
L 177.042975 315.188525 
L 182.166942 316.419897 
L 187.290909 314.62364 
L 192.414876 316.645398 
L 197.538843 317.527369 
L 202.66281 318.805274 
L 207.786777 318.324766 
L 212.910744 318.425152 
L 218.034711 316.23178 
L 223.158678 317.161747 
L 228.282645 319.12041 
L 233.406612 319.443104 
L 238.530579 319.719112 
L 243.654545 318.149953 
L 248.778512 318.586027 
L 253.902479 317.690447 
L 259.026446 317.144764 
L 264.150413 319.137157 
L 269.27438 319.172727 
L 274.398347 319.003572 
L 279.522314 318.416878 
L 284.646281 320.051372 
L 289.770248 319.64356 
L 294.894215 320.096445 
L 300.018182 319.098445 
L 305.142149 318.760285 
L 310.266116 320.565375 
L 315.390083 320.821146 
L 320.51405 315.868602 
L 325.638017 320.038107 
L 330.761983 320.493788 
L 335.88595 320.613325 
L 341.009917 320.9129 
L 346.133884 320.501962 
L 351.257851 319.574276 
L 356.381818 319.736648 
L 361.505785 320.600737 
L 366.629752 320.682895 
L 371.753719 320.858657 
L 376.877686 320.836899 
L 382.001653 320.250809 
L 387.12562 319.204371 
L 392.249587 320.477198 
L 397.373554 321.610983 
L 402.497521 321.011036 
L 407.621488 320.992042 
L 412.745455 320.409928 
L 417.869421 320.020198 
L 422.993388 321.619615 
L 428.117355 320.832751 
L 433.241322 321.839253 
L 438.365289 318.064193 
L 443.489256 322.170229 
L 448.613223 322.448856 
L 453.73719 321.336395 
L 458.861157 321.379825 
L 463.985124 322.109999 
L 469.109091 320.371965 
L 474.233058 322.65307 
L 479.357025 321.990227 
L 484.480992 322.186122 
L 489.604959 322.169909 
L 494.728926 322.753808 
L 499.852893 322.519096 
L 504.97686 321.974269 
L 510.100826 322.21545 
L 515.224793 322.393875 
L 520.34876 322.671864 
L 525.472727 322.821702 
L 530.596694 323.019241 
L 535.720661 321.393409 
L 540.844628 323.15614 
L 545.968595 322.882188 
L 551.092562 322.870474 
L 556.216529 322.831337 
L 561.340496 322.181726 
L 566.464463 323.344742 
L 571.58843 322.888145 
L 576.712397 320.22016 
L 581.836364 323.86441 
" clip-path="url(#pf0573d3cc3)" style="fill: none; stroke: #1f77b4; stroke-width: 1.5; stroke-linecap: square"/>
   </g>
   <g id="line2d_13">
    <path d="M 74.563636 77.541461 
L 79.687603 140.049402 
L 84.81157 205.334439 
L 89.935537 264.26522 
L 95.059504 281.187647 
L 100.183471 291.877898 
L 105.307438 276.337346 
L 110.431405 300.622439 
L 115.555372 302.921431 
L 120.679339 291.587791 
L 125.803306 292.310367 
L 130.927273 301.51487 
L 136.05124 309.142149 
L 141.175207 309.296942 
L 146.299174 310.425445 
L 151.42314 303.562924 
L 156.547107 310.198344 
L 161.671074 312.493571 
L 166.795041 313.763287 
L 171.919008 311.038328 
L 177.042975 315.596243 
L 182.166942 314.272663 
L 187.290909 316.235212 
L 192.414876 315.26587 
L 197.538843 318.040468 
L 202.66281 317.632913 
L 207.786777 317.120129 
L 212.910744 318.460154 
L 218.034711 319.456139 
L 223.158678 316.323694 
L 228.282645 320.222023 
L 233.406612 320.913379 
L 238.530579 318.194979 
L 243.654545 317.110859 
L 248.778512 320.578482 
L 253.902479 318.773625 
L 259.026446 317.903479 
L 264.150413 316.440134 
L 269.27438 320.231004 
L 274.398347 320.651178 
L 279.522314 316.510592 
L 284.646281 320.396123 
L 289.770248 318.497277 
L 294.894215 320.582708 
L 300.018182 316.464316 
L 305.142149 320.256647 
L 310.266116 319.698572 
L 315.390083 321.033324 
L 320.51405 319.619729 
L 325.638017 320.649294 
L 330.761983 318.50501 
L 335.88595 321.303294 
L 341.009917 321.430457 
L 346.133884 316.383528 
L 351.257851 316.048515 
L 356.381818 321.665174 
L 361.505785 321.463566 
L 366.629752 322.179854 
L 371.753719 322.400465 
L 376.877686 319.85722 
L 382.001653 320.689929 
L 387.12562 320.228524 
L 392.249587 319.510287 
L 397.373554 321.342311 
L 402.497521 320.617648 
L 407.621488 320.720867 
L 412.745455 320.453113 
L 417.869421 321.955012 
L 422.993388 321.743936 
L 428.117355 321.426024 
L 433.241322 321.437506 
L 438.365289 314.583035 
L 443.489256 322.208236 
L 448.613223 322.677832 
L 453.73719 321.567579 
L 458.861157 317.476487 
L 463.985124 322.94097 
L 469.109091 323.021665 
L 474.233058 322.211936 
L 479.357025 322.808796 
L 484.480992 321.286119 
L 489.604959 323.300027 
L 494.728926 322.734146 
L 499.852893 323.149869 
L 504.97686 323.385746 
L 510.100826 323.67432 
L 515.224793 323.502964 
L 520.34876 321.698843 
L 525.472727 321.056778 
L 530.596694 322.837602 
L 535.720661 322.155819 
L 540.844628 323.676611 
L 545.968595 322.41639 
L 551.092562 322.424708 
L 556.216529 322.730059 
L 561.340496 323.868006 
L 566.464463 323.086538 
L 571.58843 323.628315 
L 576.712397 321.926506 
L 581.836364 324.72 
" clip-path="url(#pf0573d3cc3)" style="fill: none; stroke: #ff7f0e; stroke-width: 1.5; stroke-linecap: square"/>
   </g>
   <g id="patch_3">
    <path d="M 49.2 339.84 
L 49.2 7.2 
" style="fill: none; stroke: #000000; stroke-width: 0.8; stroke-linejoin: miter; stroke-linecap: square"/>
   </g>
   <g id="patch_4">
    <path d="M 607.2 339.84 
L 607.2 7.2 
" style="fill: none; stroke: #000000; stroke-width: 0.8; stroke-linejoin: miter; stroke-linecap: square"/>
   </g>
   <g id="patch_5">
    <path d="M 49.2 339.84 
L 607.2 339.84 
" style="fill: none; stroke: #000000; stroke-width: 0.8; stroke-linejoin: miter; stroke-linecap: square"/>
   </g>
   <g id="patch_6">
    <path d="M 49.2 7.2 
L 607.2 7.2 
" style="fill: none; stroke: #000000; stroke-width: 0.8; stroke-linejoin: miter; stroke-linecap: square"/>
   </g>
   <g id="legend_1">
    <g id="patch_7">
     <path d="M 498.1575 58.041875 
L 597.4 58.041875 
Q 600.2 58.041875 600.2 55.241875 
L 600.2 17 
Q 600.2 14.2 597.4 14.2 
L 498.1575 14.2 
Q 495.3575 14.2 495.3575 17 
L 495.3575 55.241875 
Q 495.3575 58.041875 498.1575 58.041875 
z
" style="fill: #ffffff; opacity: 0.8; stroke: #cccccc; stroke-linejoin: miter"/>
    </g>
    <g id="line2d_14">
     <path d="M 500.9575 24.7 
L 514.9575 24.7 
L 528.9575 24.7 
" style="fill: none; stroke: #1f77b4; stroke-width: 1.5; stroke-linecap: square"/>
    </g>
    <g id="text_12">
     <!-- train_loss -->
     <g transform="translate(540.1575 29.6)scale(0.14 -0.14)">
      <defs>
       <path id="TimesNewRomanPSMT-74" d="M 1031 3803 
L 1031 2863 
L 1700 2863 
L 1700 2644 
L 1031 2644 
L 1031 788 
Q 1031 509 1111 412 
Q 1191 316 1316 316 
Q 1419 316 1516 380 
Q 1613 444 1666 569 
L 1788 569 
Q 1678 263 1478 108 
Q 1278 -47 1066 -47 
Q 922 -47 784 33 
Q 647 113 581 261 
Q 516 409 516 719 
L 516 2644 
L 63 2644 
L 63 2747 
Q 234 2816 414 2980 
Q 594 3144 734 3369 
Q 806 3488 934 3803 
L 1031 3803 
z
" transform="scale(0.015625)"/>
       <path id="TimesNewRomanPSMT-72" d="M 1038 2947 
L 1038 2303 
Q 1397 2947 1775 2947 
Q 1947 2947 2059 2842 
Q 2172 2738 2172 2600 
Q 2172 2478 2090 2393 
Q 2009 2309 1897 2309 
Q 1788 2309 1652 2417 
Q 1516 2525 1450 2525 
Q 1394 2525 1328 2463 
Q 1188 2334 1038 2041 
L 1038 669 
Q 1038 431 1097 309 
Q 1138 225 1241 169 
Q 1344 113 1538 113 
L 1538 0 
L 72 0 
L 72 113 
Q 291 113 397 181 
Q 475 231 506 341 
Q 522 394 522 644 
L 522 1753 
Q 522 2253 501 2348 
Q 481 2444 426 2487 
Q 372 2531 291 2531 
Q 194 2531 72 2484 
L 41 2597 
L 906 2947 
L 1038 2947 
z
" transform="scale(0.015625)"/>
       <path id="TimesNewRomanPSMT-61" d="M 1822 413 
Q 1381 72 1269 19 
Q 1100 -59 909 -59 
Q 613 -59 420 144 
Q 228 347 228 678 
Q 228 888 322 1041 
Q 450 1253 767 1440 
Q 1084 1628 1822 1897 
L 1822 2009 
Q 1822 2438 1686 2597 
Q 1550 2756 1291 2756 
Q 1094 2756 978 2650 
Q 859 2544 859 2406 
L 866 2225 
Q 866 2081 792 2003 
Q 719 1925 600 1925 
Q 484 1925 411 2006 
Q 338 2088 338 2228 
Q 338 2497 613 2722 
Q 888 2947 1384 2947 
Q 1766 2947 2009 2819 
Q 2194 2722 2281 2516 
Q 2338 2381 2338 1966 
L 2338 994 
Q 2338 584 2353 492 
Q 2369 400 2405 369 
Q 2441 338 2488 338 
Q 2538 338 2575 359 
Q 2641 400 2828 588 
L 2828 413 
Q 2478 -56 2159 -56 
Q 2006 -56 1915 50 
Q 1825 156 1822 413 
z
M 1822 616 
L 1822 1706 
Q 1350 1519 1213 1441 
Q 966 1303 859 1153 
Q 753 1003 753 825 
Q 753 600 887 451 
Q 1022 303 1197 303 
Q 1434 303 1822 616 
z
" transform="scale(0.015625)"/>
       <path id="TimesNewRomanPSMT-69" d="M 928 4444 
Q 1059 4444 1151 4351 
Q 1244 4259 1244 4128 
Q 1244 3997 1151 3903 
Q 1059 3809 928 3809 
Q 797 3809 703 3903 
Q 609 3997 609 4128 
Q 609 4259 701 4351 
Q 794 4444 928 4444 
z
M 1188 2947 
L 1188 647 
Q 1188 378 1227 289 
Q 1266 200 1342 156 
Q 1419 113 1622 113 
L 1622 0 
L 231 0 
L 231 113 
Q 441 113 512 153 
Q 584 194 626 287 
Q 669 381 669 647 
L 669 1750 
Q 669 2216 641 2353 
Q 619 2453 572 2492 
Q 525 2531 444 2531 
Q 356 2531 231 2484 
L 188 2597 
L 1050 2947 
L 1188 2947 
z
" transform="scale(0.015625)"/>
       <path id="TimesNewRomanPSMT-6e" d="M 1034 2341 
Q 1538 2947 1994 2947 
Q 2228 2947 2397 2830 
Q 2566 2713 2666 2444 
Q 2734 2256 2734 1869 
L 2734 647 
Q 2734 375 2778 278 
Q 2813 200 2889 156 
Q 2966 113 3172 113 
L 3172 0 
L 1756 0 
L 1756 113 
L 1816 113 
Q 2016 113 2095 173 
Q 2175 234 2206 353 
Q 2219 400 2219 647 
L 2219 1819 
Q 2219 2209 2117 2386 
Q 2016 2563 1775 2563 
Q 1403 2563 1034 2156 
L 1034 647 
Q 1034 356 1069 288 
Q 1113 197 1189 155 
Q 1266 113 1500 113 
L 1500 0 
L 84 0 
L 84 113 
L 147 113 
Q 366 113 442 223 
Q 519 334 519 647 
L 519 1709 
Q 519 2225 495 2337 
Q 472 2450 423 2490 
Q 375 2531 294 2531 
Q 206 2531 84 2484 
L 38 2597 
L 900 2947 
L 1034 2947 
L 1034 2341 
z
" transform="scale(0.015625)"/>
       <path id="TimesNewRomanPSMT-5f" d="M 3256 -1381 
L -53 -1381 
L -53 -1119 
L 3256 -1119 
L 3256 -1381 
z
" transform="scale(0.015625)"/>
       <path id="TimesNewRomanPSMT-6c" d="M 1184 4444 
L 1184 647 
Q 1184 378 1223 290 
Q 1263 203 1344 158 
Q 1425 113 1647 113 
L 1647 0 
L 244 0 
L 244 113 
Q 441 113 512 153 
Q 584 194 625 287 
Q 666 381 666 647 
L 666 3247 
Q 666 3731 644 3842 
Q 622 3953 573 3993 
Q 525 4034 450 4034 
Q 369 4034 244 3984 
L 191 4094 
L 1044 4444 
L 1184 4444 
z
" transform="scale(0.015625)"/>
       <path id="TimesNewRomanPSMT-6f" d="M 1600 2947 
Q 2250 2947 2644 2453 
Q 2978 2031 2978 1484 
Q 2978 1100 2793 706 
Q 2609 313 2286 112 
Q 1963 -88 1566 -88 
Q 919 -88 538 428 
Q 216 863 216 1403 
Q 216 1797 411 2186 
Q 606 2575 925 2761 
Q 1244 2947 1600 2947 
z
M 1503 2744 
Q 1338 2744 1170 2645 
Q 1003 2547 900 2300 
Q 797 2053 797 1666 
Q 797 1041 1045 587 
Q 1294 134 1700 134 
Q 2003 134 2200 384 
Q 2397 634 2397 1244 
Q 2397 2006 2069 2444 
Q 1847 2744 1503 2744 
z
" transform="scale(0.015625)"/>
       <path id="TimesNewRomanPSMT-73" d="M 2050 2947 
L 2050 1972 
L 1947 1972 
Q 1828 2431 1642 2597 
Q 1456 2763 1169 2763 
Q 950 2763 815 2647 
Q 681 2531 681 2391 
Q 681 2216 781 2091 
Q 878 1963 1175 1819 
L 1631 1597 
Q 2266 1288 2266 781 
Q 2266 391 1970 151 
Q 1675 -88 1309 -88 
Q 1047 -88 709 6 
Q 606 38 541 38 
Q 469 38 428 -44 
L 325 -44 
L 325 978 
L 428 978 
Q 516 541 762 319 
Q 1009 97 1316 97 
Q 1531 97 1667 223 
Q 1803 350 1803 528 
Q 1803 744 1651 891 
Q 1500 1038 1047 1263 
Q 594 1488 453 1669 
Q 313 1847 313 2119 
Q 313 2472 555 2709 
Q 797 2947 1181 2947 
Q 1350 2947 1591 2875 
Q 1750 2828 1803 2828 
Q 1853 2828 1881 2850 
Q 1909 2872 1947 2947 
L 2050 2947 
z
" transform="scale(0.015625)"/>
      </defs>
      <use xlink:href="#TimesNewRomanPSMT-74"/>
      <use xlink:href="#TimesNewRomanPSMT-72" x="27.783203"/>
      <use xlink:href="#TimesNewRomanPSMT-61" x="61.083984"/>
      <use xlink:href="#TimesNewRomanPSMT-69" x="105.46875"/>
      <use xlink:href="#TimesNewRomanPSMT-6e" x="133.251953"/>
      <use xlink:href="#TimesNewRomanPSMT-5f" x="183.251953"/>
      <use xlink:href="#TimesNewRomanPSMT-6c" x="233.251953"/>
      <use xlink:href="#TimesNewRomanPSMT-6f" x="261.035156"/>
      <use xlink:href="#TimesNewRomanPSMT-73" x="311.035156"/>
      <use xlink:href="#TimesNewRomanPSMT-73" x="349.951172"/>
     </g>
    </g>
    <g id="line2d_15">
     <path d="M 500.9575 44.520938 
L 514.9575 44.520938 
L 528.9575 44.520938 
" style="fill: none; stroke: #ff7f0e; stroke-width: 1.5; stroke-linecap: square"/>
    </g>
    <g id="text_13">
     <!-- val_loss -->
     <g transform="translate(540.1575 49.420938)scale(0.14 -0.14)">
      <defs>
       <path id="TimesNewRomanPSMT-76" d="M 53 2863 
L 1400 2863 
L 1400 2747 
L 1313 2747 
Q 1191 2747 1127 2687 
Q 1063 2628 1063 2528 
Q 1063 2419 1128 2269 
L 1794 688 
L 2463 2328 
Q 2534 2503 2534 2594 
Q 2534 2638 2509 2666 
Q 2475 2713 2422 2730 
Q 2369 2747 2206 2747 
L 2206 2863 
L 3141 2863 
L 3141 2747 
Q 2978 2734 2916 2681 
Q 2806 2588 2719 2369 
L 1703 -88 
L 1575 -88 
L 553 2328 
Q 484 2497 421 2570 
Q 359 2644 263 2694 
Q 209 2722 53 2747 
L 53 2863 
z
" transform="scale(0.015625)"/>
      </defs>
      <use xlink:href="#TimesNewRomanPSMT-76"/>
      <use xlink:href="#TimesNewRomanPSMT-61" x="50"/>
      <use xlink:href="#TimesNewRomanPSMT-6c" x="94.384766"/>
      <use xlink:href="#TimesNewRomanPSMT-5f" x="122.167969"/>
      <use xlink:href="#TimesNewRomanPSMT-6c" x="172.167969"/>
      <use xlink:href="#TimesNewRomanPSMT-6f" x="199.951172"/>
      <use xlink:href="#TimesNewRomanPSMT-73" x="249.951172"/>
      <use xlink:href="#TimesNewRomanPSMT-73" x="288.867188"/>
     </g>
    </g>
   </g>
  </g>
 </g>
 <defs>
  <clipPath id="pf0573d3cc3">
   <rect x="49.2" y="7.2" width="558" height="332.64"/>
  </clipPath>
 </defs>
</svg>
