<?xml version="1.0" encoding="utf-8" standalone="no"?>
<!DOCTYPE svg PUBLIC "-//W3C//DTD SVG 1.1//EN"
  "http://www.w3.org/Graphics/SVG/1.1/DTD/svg11.dtd">
<svg xmlns:xlink="http://www.w3.org/1999/xlink" width="608.294688pt" height="366.755938pt" viewBox="0 0 608.294688 366.755938" xmlns="http://www.w3.org/2000/svg" version="1.1">
 <metadata>
  <rdf:RDF xmlns:dc="http://purl.org/dc/elements/1.1/" xmlns:cc="http://creativecommons.org/ns#" xmlns:rdf="http://www.w3.org/1999/02/22-rdf-syntax-ns#">
   <cc:Work>
    <dc:type rdf:resource="http://purl.org/dc/dcmitype/StillImage"/>
    <dc:date>2023-04-02T13:19:27.090927</dc:date>
    <dc:format>image/svg+xml</dc:format>
    <dc:creator>
     <cc:Agent>
      <dc:title>Matplotlib v3.5.0, https://matplotlib.org/</dc:title>
     </cc:Agent>
    </dc:creator>
   </cc:Work>
  </rdf:RDF>
 </metadata>
 <defs>
  <style type="text/css">*{stroke-linejoin: round; stroke-linecap: butt}</style>
 </defs>
 <g id="figure_1">
  <g id="patch_1">
   <path d="M -0 366.755938 
L 608.294688 366.755938 
L 608.294688 0 
L -0 0 
z
" style="fill: #ffffff"/>
  </g>
  <g id="axes_1">
   <g id="patch_2">
    <path d="M 43.094687 339.84 
L 601.094687 339.84 
L 601.094687 7.2 
L 43.094687 7.2 
z
" style="fill: #ffffff"/>
   </g>
   <g id="matplotlib.axis_1">
    <g id="xtick_1">
     <g id="line2d_1">
      <defs>
       <path id="mb799a09048" d="M 0 0 
L 0 3.5 
" style="stroke: #000000; stroke-width: 0.8"/>
      </defs>
      <g>
       <use xlink:href="#mb799a09048" x="68.458324" y="339.84" style="stroke: #000000; stroke-width: 0.8"/>
      </g>
     </g>
     <g id="text_1">
      <!-- 0 -->
      <g transform="translate(64.958324 356.56125)scale(0.14 -0.14)">
       <defs>
        <path id="TimesNewRomanPSMT-30" d="M 231 2094 
Q 231 2819 450 3342 
Q 669 3866 1031 4122 
Q 1313 4325 1613 4325 
Q 2100 4325 2488 3828 
Q 2972 3213 2972 2159 
Q 2972 1422 2759 906 
Q 2547 391 2217 158 
Q 1888 -75 1581 -75 
Q 975 -75 572 641 
Q 231 1244 231 2094 
z
M 844 2016 
Q 844 1141 1059 588 
Q 1238 122 1591 122 
Q 1759 122 1940 273 
Q 2122 425 2216 781 
Q 2359 1319 2359 2297 
Q 2359 3022 2209 3506 
Q 2097 3866 1919 4016 
Q 1791 4119 1609 4119 
Q 1397 4119 1231 3928 
Q 1006 3669 925 3112 
Q 844 2556 844 2016 
z
" transform="scale(0.015625)"/>
       </defs>
       <use xlink:href="#TimesNewRomanPSMT-30"/>
      </g>
     </g>
    </g>
    <g id="xtick_2">
     <g id="line2d_2">
      <g>
       <use xlink:href="#mb799a09048" x="153.286539" y="339.84" style="stroke: #000000; stroke-width: 0.8"/>
      </g>
     </g>
     <g id="text_2">
      <!-- 50 -->
      <g transform="translate(146.286539 356.56125)scale(0.14 -0.14)">
       <defs>
        <path id="TimesNewRomanPSMT-35" d="M 2778 4238 
L 2534 3706 
L 1259 3706 
L 981 3138 
Q 1809 3016 2294 2522 
Q 2709 2097 2709 1522 
Q 2709 1188 2573 903 
Q 2438 619 2231 419 
Q 2025 219 1772 97 
Q 1413 -75 1034 -75 
Q 653 -75 479 54 
Q 306 184 306 341 
Q 306 428 378 495 
Q 450 563 559 563 
Q 641 563 702 538 
Q 763 513 909 409 
Q 1144 247 1384 247 
Q 1750 247 2026 523 
Q 2303 800 2303 1197 
Q 2303 1581 2056 1914 
Q 1809 2247 1375 2428 
Q 1034 2569 447 2591 
L 1259 4238 
L 2778 4238 
z
" transform="scale(0.015625)"/>
       </defs>
       <use xlink:href="#TimesNewRomanPSMT-35"/>
       <use xlink:href="#TimesNewRomanPSMT-30" x="50"/>
      </g>
     </g>
    </g>
    <g id="xtick_3">
     <g id="line2d_3">
      <g>
       <use xlink:href="#mb799a09048" x="238.114754" y="339.84" style="stroke: #000000; stroke-width: 0.8"/>
      </g>
     </g>
     <g id="text_3">
      <!-- 100 -->
      <g transform="translate(227.614754 356.56125)scale(0.14 -0.14)">
       <defs>
        <path id="TimesNewRomanPSMT-31" d="M 750 3822 
L 1781 4325 
L 1884 4325 
L 1884 747 
Q 1884 391 1914 303 
Q 1944 216 2037 169 
Q 2131 122 2419 116 
L 2419 0 
L 825 0 
L 825 116 
Q 1125 122 1212 167 
Q 1300 213 1334 289 
Q 1369 366 1369 747 
L 1369 3034 
Q 1369 3497 1338 3628 
Q 1316 3728 1258 3775 
Q 1200 3822 1119 3822 
Q 1003 3822 797 3725 
L 750 3822 
z
" transform="scale(0.015625)"/>
       </defs>
       <use xlink:href="#TimesNewRomanPSMT-31"/>
       <use xlink:href="#TimesNewRomanPSMT-30" x="50"/>
       <use xlink:href="#TimesNewRomanPSMT-30" x="100"/>
      </g>
     </g>
    </g>
    <g id="xtick_4">
     <g id="line2d_4">
      <g>
       <use xlink:href="#mb799a09048" x="322.94297" y="339.84" style="stroke: #000000; stroke-width: 0.8"/>
      </g>
     </g>
     <g id="text_4">
      <!-- 150 -->
      <g transform="translate(312.44297 356.56125)scale(0.14 -0.14)">
       <use xlink:href="#TimesNewRomanPSMT-31"/>
       <use xlink:href="#TimesNewRomanPSMT-35" x="50"/>
       <use xlink:href="#TimesNewRomanPSMT-30" x="100"/>
      </g>
     </g>
    </g>
    <g id="xtick_5">
     <g id="line2d_5">
      <g>
       <use xlink:href="#mb799a09048" x="407.771185" y="339.84" style="stroke: #000000; stroke-width: 0.8"/>
      </g>
     </g>
     <g id="text_5">
      <!-- 200 -->
      <g transform="translate(397.271185 356.56125)scale(0.14 -0.14)">
       <defs>
        <path id="TimesNewRomanPSMT-32" d="M 2934 816 
L 2638 0 
L 138 0 
L 138 116 
Q 1241 1122 1691 1759 
Q 2141 2397 2141 2925 
Q 2141 3328 1894 3587 
Q 1647 3847 1303 3847 
Q 991 3847 742 3664 
Q 494 3481 375 3128 
L 259 3128 
Q 338 3706 661 4015 
Q 984 4325 1469 4325 
Q 1984 4325 2329 3994 
Q 2675 3663 2675 3213 
Q 2675 2891 2525 2569 
Q 2294 2063 1775 1497 
Q 997 647 803 472 
L 1909 472 
Q 2247 472 2383 497 
Q 2519 522 2628 598 
Q 2738 675 2819 816 
L 2934 816 
z
" transform="scale(0.015625)"/>
       </defs>
       <use xlink:href="#TimesNewRomanPSMT-32"/>
       <use xlink:href="#TimesNewRomanPSMT-30" x="50"/>
       <use xlink:href="#TimesNewRomanPSMT-30" x="100"/>
      </g>
     </g>
    </g>
    <g id="xtick_6">
     <g id="line2d_6">
      <g>
       <use xlink:href="#mb799a09048" x="492.5994" y="339.84" style="stroke: #000000; stroke-width: 0.8"/>
      </g>
     </g>
     <g id="text_6">
      <!-- 250 -->
      <g transform="translate(482.0994 356.56125)scale(0.14 -0.14)">
       <use xlink:href="#TimesNewRomanPSMT-32"/>
       <use xlink:href="#TimesNewRomanPSMT-35" x="50"/>
       <use xlink:href="#TimesNewRomanPSMT-30" x="100"/>
      </g>
     </g>
    </g>
    <g id="xtick_7">
     <g id="line2d_7">
      <g>
       <use xlink:href="#mb799a09048" x="577.427615" y="339.84" style="stroke: #000000; stroke-width: 0.8"/>
      </g>
     </g>
     <g id="text_7">
      <!-- 300 -->
      <g transform="translate(566.927615 356.56125)scale(0.14 -0.14)">
       <defs>
        <path id="TimesNewRomanPSMT-33" d="M 325 3431 
Q 506 3859 782 4092 
Q 1059 4325 1472 4325 
Q 1981 4325 2253 3994 
Q 2459 3747 2459 3466 
Q 2459 3003 1878 2509 
Q 2269 2356 2469 2072 
Q 2669 1788 2669 1403 
Q 2669 853 2319 450 
Q 1863 -75 997 -75 
Q 569 -75 414 31 
Q 259 138 259 259 
Q 259 350 332 419 
Q 406 488 509 488 
Q 588 488 669 463 
Q 722 447 909 348 
Q 1097 250 1169 231 
Q 1284 197 1416 197 
Q 1734 197 1970 444 
Q 2206 691 2206 1028 
Q 2206 1275 2097 1509 
Q 2016 1684 1919 1775 
Q 1784 1900 1550 2001 
Q 1316 2103 1072 2103 
L 972 2103 
L 972 2197 
Q 1219 2228 1467 2375 
Q 1716 2522 1828 2728 
Q 1941 2934 1941 3181 
Q 1941 3503 1739 3701 
Q 1538 3900 1238 3900 
Q 753 3900 428 3381 
L 325 3431 
z
" transform="scale(0.015625)"/>
       </defs>
       <use xlink:href="#TimesNewRomanPSMT-33"/>
       <use xlink:href="#TimesNewRomanPSMT-30" x="50"/>
       <use xlink:href="#TimesNewRomanPSMT-30" x="100"/>
      </g>
     </g>
    </g>
   </g>
   <g id="matplotlib.axis_2">
    <g id="ytick_1">
     <g id="line2d_8">
      <defs>
       <path id="mdd9777fd0b" d="M 0 0 
L -3.5 0 
" style="stroke: #000000; stroke-width: 0.8"/>
      </defs>
      <g>
       <use xlink:href="#mdd9777fd0b" x="43.094687" y="301.855174" style="stroke: #000000; stroke-width: 0.8"/>
      </g>
     </g>
     <g id="text_8">
      <!-- −400 -->
      <g transform="translate(7.2 306.715799)scale(0.14 -0.14)">
       <defs>
        <path id="TimesNewRomanPSMT-2212" d="M 3484 2000 
L 116 2000 
L 116 2256 
L 3484 2256 
L 3484 2000 
z
" transform="scale(0.015625)"/>
        <path id="TimesNewRomanPSMT-34" d="M 2978 1563 
L 2978 1119 
L 2409 1119 
L 2409 0 
L 1894 0 
L 1894 1119 
L 100 1119 
L 100 1519 
L 2066 4325 
L 2409 4325 
L 2409 1563 
L 2978 1563 
z
M 1894 1563 
L 1894 3666 
L 406 1563 
L 1894 1563 
z
" transform="scale(0.015625)"/>
       </defs>
       <use xlink:href="#TimesNewRomanPSMT-2212"/>
       <use xlink:href="#TimesNewRomanPSMT-34" x="56.396484"/>
       <use xlink:href="#TimesNewRomanPSMT-30" x="106.396484"/>
       <use xlink:href="#TimesNewRomanPSMT-30" x="156.396484"/>
      </g>
     </g>
    </g>
    <g id="ytick_2">
     <g id="line2d_9">
      <g>
       <use xlink:href="#mdd9777fd0b" x="43.094687" y="231.544116" style="stroke: #000000; stroke-width: 0.8"/>
      </g>
     </g>
     <g id="text_9">
      <!-- −200 -->
      <g transform="translate(7.2 236.404741)scale(0.14 -0.14)">
       <use xlink:href="#TimesNewRomanPSMT-2212"/>
       <use xlink:href="#TimesNewRomanPSMT-32" x="56.396484"/>
       <use xlink:href="#TimesNewRomanPSMT-30" x="106.396484"/>
       <use xlink:href="#TimesNewRomanPSMT-30" x="156.396484"/>
      </g>
     </g>
    </g>
    <g id="ytick_3">
     <g id="line2d_10">
      <g>
       <use xlink:href="#mdd9777fd0b" x="43.094687" y="161.233058" style="stroke: #000000; stroke-width: 0.8"/>
      </g>
     </g>
     <g id="text_10">
      <!-- 0 -->
      <g transform="translate(29.094687 166.093683)scale(0.14 -0.14)">
       <use xlink:href="#TimesNewRomanPSMT-30"/>
      </g>
     </g>
    </g>
    <g id="ytick_4">
     <g id="line2d_11">
      <g>
       <use xlink:href="#mdd9777fd0b" x="43.094687" y="90.922" style="stroke: #000000; stroke-width: 0.8"/>
      </g>
     </g>
     <g id="text_11">
      <!-- 200 -->
      <g transform="translate(15.094687 95.782625)scale(0.14 -0.14)">
       <use xlink:href="#TimesNewRomanPSMT-32"/>
       <use xlink:href="#TimesNewRomanPSMT-30" x="50"/>
       <use xlink:href="#TimesNewRomanPSMT-30" x="100"/>
      </g>
     </g>
    </g>
    <g id="ytick_5">
     <g id="line2d_12">
      <g>
       <use xlink:href="#mdd9777fd0b" x="43.094687" y="20.610942" style="stroke: #000000; stroke-width: 0.8"/>
      </g>
     </g>
     <g id="text_12">
      <!-- 400 -->
      <g transform="translate(15.094687 25.471567)scale(0.14 -0.14)">
       <use xlink:href="#TimesNewRomanPSMT-34"/>
       <use xlink:href="#TimesNewRomanPSMT-30" x="50"/>
       <use xlink:href="#TimesNewRomanPSMT-30" x="100"/>
      </g>
     </g>
    </g>
   </g>
   <g id="line2d_13">
    <path d="M 68.458324 115.651852 
L 70.154888 218.496611 
L 71.851452 162.952772 
L 73.548017 44.293118 
L 75.244581 179.390681 
L 76.941145 26.297677 
L 78.63771 54.285257 
L 80.334274 227.482348 
L 82.030838 133.311821 
L 83.727403 212.625929 
L 85.423967 175.580728 
L 87.120531 68.92602 
L 88.817096 285.781808 
L 90.51366 282.16355 
L 92.210224 61.354042 
L 93.906788 222.354488 
L 95.603353 241.45217 
L 97.299917 104.653309 
L 98.996481 134.62973 
L 102.38961 315.374839 
L 104.086174 273.010077 
L 105.782739 31.353656 
L 107.479303 135.01312 
L 109.175867 64.397203 
L 110.872431 308.210205 
L 112.568996 281.756195 
L 114.26556 105.491981 
L 115.962124 221.156385 
L 117.658689 217.56209 
L 119.355253 189.646403 
L 121.051817 238.241267 
L 122.748382 260.358164 
L 124.444946 285.733883 
L 126.14151 79.445321 
L 127.838075 283.217883 
L 129.534639 131.96995 
L 131.231203 174.38263 
L 132.927767 134.390109 
L 134.624332 184.782123 
L 136.320896 121.306876 
L 138.01746 37.655655 
L 139.714025 124.853246 
L 141.410589 165.420855 
L 143.107153 298.242033 
L 144.803718 30.035752 
L 146.500282 32.240247 
L 148.196846 212.69781 
L 149.893411 277.323238 
L 151.589975 285.805776 
L 153.286539 206.94694 
L 154.983103 74.940471 
L 156.679668 285.805776 
L 158.376232 116.035244 
L 160.072796 115.915432 
L 161.769361 230.381745 
L 163.465925 172.56152 
L 165.162489 57.639934 
L 166.859054 233.472837 
L 168.555618 278.137937 
L 170.252182 47.120634 
L 171.948746 217.418321 
L 173.645311 173.184531 
L 175.341875 169.973628 
L 177.038439 185.021742 
L 178.735004 64.493052 
L 180.431568 245.501745 
L 182.128132 175.341109 
L 183.824697 32.024591 
L 185.521261 265.102637 
L 187.217825 222.258638 
L 188.91439 41.345795 
L 190.610954 30.347258 
L 192.307518 313.937119 
L 195.700647 200.285515 
L 197.397211 221.515815 
L 199.093775 39.932042 
L 200.79034 34.73229 
L 202.486904 171.171727 
L 204.183468 64.15759 
L 205.880033 190.580919 
L 207.576597 67.344525 
L 210.969726 201.723233 
L 212.66629 255.733508 
L 214.362854 249.982632 
L 216.059418 283.912776 
L 217.755983 40.531085 
L 219.452547 117.664658 
L 221.149111 185.261362 
L 222.845676 72.712009 
L 224.54224 242.937815 
L 226.238804 279.575658 
L 227.935369 132.137684 
L 229.631933 180.373121 
L 231.328497 200.71683 
L 233.025061 286.428786 
L 234.721626 210.900665 
L 236.41819 39.428838 
L 238.114754 104.845008 
L 239.811319 157.513406 
L 241.507883 167.577432 
L 243.204447 154.494198 
L 244.901012 203.28076 
L 246.597576 319.064979 
L 248.29414 239.51125 
L 249.990705 188.136798 
L 251.687269 180.900285 
L 253.383833 232.035122 
L 255.080397 40.243548 
L 256.776962 34.468709 
L 258.473526 280.030937 
L 260.17009 44.556698 
L 261.866655 283.002217 
L 263.563219 258.537056 
L 265.259783 319.280635 
L 266.956348 231.268337 
L 268.652912 227.122917 
L 270.349476 277.538894 
L 272.04604 319.711957 
L 273.742605 221.132423 
L 275.439169 54.548838 
L 277.135733 160.316956 
L 278.832298 184.997782 
L 280.528862 34.277021 
L 282.225426 28.717838 
L 283.921991 41.369763 
L 285.618555 186.483422 
L 287.315119 90.947067 
L 289.011684 33.030989 
L 290.708248 314.056925 
L 292.404812 31.257806 
L 294.101376 270.254454 
L 295.797941 268.289572 
L 297.494505 104.006336 
L 299.191069 27.567666 
L 300.887634 281.947894 
L 302.584198 238.600697 
L 304.280762 300.494452 
L 305.977327 214.830429 
L 307.673891 167.218002 
L 309.370455 232.418509 
L 311.06702 229.758735 
L 312.763584 177.018446 
L 314.460148 47.623827 
L 316.156712 150.348778 
L 317.853277 181.259713 
L 319.549841 218.113219 
L 321.246405 32.312139 
L 322.94297 214.686654 
L 324.639534 271.332744 
L 326.336098 48.222881 
L 328.032663 133.91087 
L 329.729227 31.665161 
L 331.425791 283.193915 
L 333.122355 275.454206 
L 334.81892 207.066751 
L 336.515484 200.980413 
L 338.212048 80.811154 
L 339.908613 186.603233 
L 341.605177 35.427193 
L 343.301741 185.381172 
L 344.998306 317.675183 
L 346.69487 212.578004 
L 348.391434 34.780215 
L 350.087999 42.615784 
L 351.784563 189.191126 
L 353.481127 34.63644 
L 355.177691 74.557079 
L 356.874256 305.766087 
L 358.57082 198.296671 
L 360.267384 240.301998 
L 361.963949 220.221869 
L 363.660513 191.898827 
L 365.357077 30.754613 
L 367.053642 174.502439 
L 368.750206 231.148525 
L 370.44677 165.756322 
L 372.143335 186.770967 
L 373.839899 200.668905 
L 375.536463 256.835755 
L 377.233027 223.935977 
L 378.929592 46.042343 
L 380.626156 206.276004 
L 382.32272 223.169192 
L 384.019285 218.99981 
L 385.715849 107.456857 
L 387.412413 121.3548 
L 389.108978 39.428838 
L 390.805542 113.279615 
L 392.502106 120.971408 
L 394.19867 28.693881 
L 395.895235 73.382944 
L 397.591799 134.461996 
L 399.288363 27.208236 
L 400.984928 246.004944 
L 402.681492 281.468657 
L 404.378056 40.818634 
L 406.074621 193.528241 
L 407.771185 217.681902 
L 409.467749 300.350678 
L 411.164314 209.678606 
L 412.860878 36.98472 
L 416.254006 312.858828 
L 417.950571 167.577432 
L 419.647135 154.829666 
L 421.343699 306.341173 
L 423.040264 134.150491 
L 424.736828 201.028335 
L 426.433392 324.288688 
L 428.129957 188.184723 
L 429.826521 237.977686 
L 431.523085 27.232193 
L 433.219649 67.584149 
L 434.916214 287.075754 
L 436.612778 285.949539 
L 438.309342 90.635562 
L 440.005907 100.220347 
L 441.702471 155.548525 
L 443.399035 34.828139 
L 445.0956 132.281456 
L 446.792164 192.785419 
L 448.488728 150.516512 
L 450.185293 34.133247 
L 451.881857 129.573754 
L 453.578421 30.059709 
L 455.274985 31.713086 
L 456.97155 203.232838 
L 458.668114 95.403992 
L 460.364678 51.577558 
L 462.061243 74.245573 
L 463.757807 207.833536 
L 465.454371 206.443741 
L 467.150936 260.142508 
L 468.8475 215.71702 
L 470.544064 158.615656 
L 472.240629 157.537368 
L 473.937193 305.526463 
L 475.633757 102.856164 
L 477.330321 136.378953 
L 479.026886 28.358408 
L 480.72345 139.014769 
L 482.420014 134.53388 
L 484.116579 275.789668 
L 485.813143 291.532679 
L 487.509707 42.591816 
L 489.206272 321.748721 
L 490.902836 127.752644 
L 492.5994 282.475055 
L 494.295964 282.930335 
L 495.992529 174.670173 
L 497.689093 263.18568 
L 499.385657 33.222688 
L 501.082222 281.876012 
L 502.778786 173.376227 
L 504.47535 74.005955 
L 506.171915 223.888052 
L 507.868479 210.780854 
L 509.565043 174.286782 
L 511.261608 35.81058 
L 512.958172 224.175595 
L 514.654736 174.26282 
L 516.3513 27.375968 
L 518.047865 324.72 
L 519.744429 145.532423 
L 521.440993 229.063837 
L 523.137558 285.997464 
L 524.834122 189.191126 
L 526.530686 64.325321 
L 528.227251 206.299967 
L 529.923815 29.316892 
L 531.620379 214.950235 
L 533.316944 282.786561 
L 535.013508 198.41648 
L 536.710072 273.297625 
L 538.406636 210.828778 
L 540.103201 216.53173 
L 541.799765 150.875942 
L 543.496329 152.241774 
L 545.192894 157.273786 
L 546.889458 282.019776 
L 548.586022 120.492169 
L 550.282587 164.414452 
L 551.979151 237.210906 
L 553.675715 197.577814 
L 555.372279 132.832582 
L 557.068844 274.567604 
L 560.461972 35.043795 
L 562.158537 49.181354 
L 563.855101 45.467257 
L 565.551665 221.419966 
L 567.24823 22.32 
L 568.944794 307.371538 
L 570.641358 27.136355 
L 572.337923 203.136988 
L 574.034487 41.777107 
L 575.731051 133.958794 
L 575.731051 133.958794 
" clip-path="url(#p1196b7109d)" style="fill: none; stroke: #1f77b4; stroke-width: 1.5; stroke-linecap: square"/>
   </g>
   <g id="line2d_14">
    <path d="M 68.458324 115.112814 
L 70.154888 219.789351 
L 71.851452 164.663836 
L 73.548017 41.170597 
L 75.244581 172.852263 
L 76.941145 26.803231 
L 78.63771 59.833722 
L 80.334274 226.542977 
L 82.030838 139.031044 
L 83.727403 208.75476 
L 85.423967 172.155392 
L 87.120531 73.174353 
L 88.817096 285.822115 
L 90.51366 286.245971 
L 92.210224 58.947452 
L 93.906788 222.771031 
L 95.603353 245.760937 
L 97.299917 100.943193 
L 98.996481 136.135851 
L 102.38961 311.548757 
L 104.086174 270.9176 
L 105.782739 34.522052 
L 107.479303 141.057244 
L 109.175867 67.663873 
L 110.872431 308.361157 
L 112.568996 292.159369 
L 114.26556 110.93361 
L 115.962124 216.18592 
L 117.658689 221.38454 
L 119.355253 192.993626 
L 121.051817 237.762003 
L 122.748382 259.122163 
L 124.444946 278.996108 
L 126.14151 79.324865 
L 127.838075 284.189059 
L 129.534639 130.868419 
L 131.231203 170.684475 
L 132.927767 132.813981 
L 134.624332 180.645066 
L 136.320896 125.315534 
L 138.01746 35.373164 
L 139.714025 120.583153 
L 141.410589 162.731671 
L 143.107153 300.527615 
L 144.803718 35.637345 
L 146.500282 36.900425 
L 148.196846 217.438646 
L 149.893411 277.784129 
L 151.589975 283.942247 
L 153.286539 207.247137 
L 154.983103 85.792499 
L 156.679668 285.468897 
L 158.376232 116.06912 
L 160.072796 103.373744 
L 161.769361 231.058426 
L 163.465925 163.147965 
L 165.162489 54.505719 
L 166.859054 234.202259 
L 168.555618 276.369325 
L 170.252182 43.993607 
L 171.948746 220.032118 
L 173.645311 194.366758 
L 175.341875 166.89575 
L 177.038439 181.183292 
L 178.735004 64.277568 
L 180.431568 242.629442 
L 182.128132 171.787629 
L 183.824697 32.114926 
L 185.521261 261.771905 
L 187.217825 229.784816 
L 188.91439 43.148278 
L 190.610954 35.567566 
L 192.307518 313.719027 
L 194.004082 252.926537 
L 195.700647 207.857123 
L 197.397211 229.94714 
L 199.093775 37.454226 
L 200.79034 34.845874 
L 202.486904 163.039365 
L 204.183468 68.444284 
L 205.880033 191.981548 
L 207.576597 68.573134 
L 209.273161 138.870178 
L 210.969726 200.316245 
L 212.66629 251.800032 
L 214.362854 247.294207 
L 216.059418 281.906031 
L 217.755983 45.215124 
L 219.452547 118.009706 
L 221.149111 183.329926 
L 222.845676 75.386074 
L 224.54224 248.627709 
L 226.238804 276.429427 
L 227.935369 131.13815 
L 229.631933 177.368119 
L 231.328497 201.933133 
L 233.025061 278.549734 
L 234.721626 213.662168 
L 236.41819 43.623802 
L 238.114754 102.859184 
L 239.811319 144.244064 
L 241.507883 164.683662 
L 243.204447 158.002391 
L 244.901012 198.886713 
L 246.597576 317.752054 
L 248.29414 235.841205 
L 249.990705 191.543568 
L 251.687269 182.079486 
L 253.383833 236.874291 
L 255.080397 47.621274 
L 256.776962 38.393334 
L 258.473526 288.029957 
L 260.17009 49.676469 
L 261.866655 284.24312 
L 263.563219 255.461087 
L 265.259783 317.945383 
L 266.956348 232.078074 
L 268.652912 228.290904 
L 270.349476 274.300805 
L 272.04604 316.833984 
L 273.742605 221.646699 
L 275.439169 51.544557 
L 277.135733 160.202255 
L 278.832298 183.151167 
L 280.528862 38.258196 
L 282.225426 34.212177 
L 283.921991 46.079582 
L 285.618555 190.174071 
L 287.315119 88.619312 
L 289.011684 34.611239 
L 290.708248 310.88546 
L 292.404812 35.424082 
L 294.101376 261.407948 
L 295.797941 265.76486 
L 297.494505 99.957324 
L 299.191069 33.957501 
L 300.887634 279.845375 
L 302.584198 241.943422 
L 304.280762 304.783217 
L 305.977327 211.470135 
L 307.673891 162.824393 
L 309.370455 225.673809 
L 311.06702 234.33973 
L 312.763584 181.043734 
L 314.460148 44.289717 
L 316.156712 154.496124 
L 317.853277 174.876027 
L 319.549841 220.320261 
L 321.246405 34.564291 
L 322.94297 215.874661 
L 324.639534 268.400334 
L 326.336098 54.422766 
L 328.032663 138.709321 
L 329.729227 35.394235 
L 331.425791 293.08645 
L 333.122355 267.339059 
L 334.81892 211.878938 
L 336.515484 202.022191 
L 338.212048 80.259086 
L 339.908613 189.851818 
L 341.605177 39.013297 
L 343.301741 186.188945 
L 344.998306 313.936571 
L 346.69487 216.86231 
L 348.391434 34.920695 
L 350.087999 49.933762 
L 351.784563 185.130455 
L 353.481127 34.990506 
L 355.177691 84.744372 
L 356.874256 307.171063 
L 358.57082 196.181299 
L 360.267384 242.728092 
L 361.963949 222.706166 
L 363.660513 188.27528 
L 365.357077 35.879125 
L 367.053642 163.419397 
L 368.750206 231.932395 
L 370.44677 162.285736 
L 372.143335 188.323428 
L 373.839899 200.163002 
L 375.536463 253.208174 
L 377.233027 224.701914 
L 378.929592 46.358666 
L 380.626156 204.432243 
L 382.32272 223.494151 
L 384.019285 220.608421 
L 385.715849 104.475107 
L 387.412413 124.838111 
L 389.108978 37.156936 
L 390.805542 109.782805 
L 392.502106 123.87713 
L 394.19867 34.09825 
L 395.895235 80.556371 
L 397.591799 134.635403 
L 399.288363 34.169349 
L 400.984928 245.886044 
L 402.681492 291.7094 
L 404.378056 45.694178 
L 406.074621 189.847725 
L 407.771185 218.009757 
L 409.467749 304.650568 
L 411.164314 212.593898 
L 412.860878 40.555622 
L 416.254006 310.089526 
L 417.950571 162.858373 
L 419.647135 161.576435 
L 421.343699 307.436382 
L 423.040264 136.511127 
L 424.736828 208.192291 
L 426.433392 318.361439 
L 428.129957 188.191656 
L 429.826521 233.87575 
L 431.523085 34.079121 
L 433.219649 68.721232 
L 434.916214 295.915919 
L 436.612778 284.718988 
L 438.309342 88.422812 
L 440.005907 100.444462 
L 441.702471 161.18561 
L 443.399035 34.85995 
L 445.0956 130.958333 
L 446.792164 194.660818 
L 448.488728 154.70239 
L 450.185293 35.10645 
L 451.881857 128.980497 
L 453.578421 30.061072 
L 455.274985 36.63368 
L 456.97155 194.936257 
L 458.668114 82.734698 
L 460.364678 57.379658 
L 462.061243 75.09013 
L 463.757807 206.717739 
L 465.454371 200.06847 
L 467.150936 255.53653 
L 468.8475 213.607431 
L 470.544064 160.477383 
L 472.240629 162.43304 
L 473.937193 304.983831 
L 475.633757 89.614595 
L 477.330321 133.242552 
L 479.026886 28.693753 
L 480.72345 141.988097 
L 482.420014 130.567661 
L 484.116579 275.725919 
L 485.813143 281.004688 
L 487.509707 47.658663 
L 489.206272 320.051561 
L 490.902836 127.706854 
L 492.5994 282.640212 
L 494.295964 279.686366 
L 495.992529 163.615511 
L 497.689093 256.465403 
L 499.385657 34.620594 
L 501.082222 279.730933 
L 502.778786 163.238467 
L 504.47535 74.941517 
L 506.171915 223.023722 
L 507.868479 206.930412 
L 509.565043 163.37417 
L 511.261608 39.474478 
L 512.958172 223.94375 
L 514.654736 169.346086 
L 516.3513 33.989923 
L 518.047865 320.253012 
L 519.744429 150.371144 
L 521.440993 214.392562 
L 523.137558 285.105755 
L 524.834122 190.179797 
L 526.530686 63.981447 
L 528.227251 204.512799 
L 529.923815 34.301525 
L 531.620379 216.719003 
L 533.316944 283.67106 
L 535.013508 200.784868 
L 536.710072 271.261388 
L 538.406636 207.492806 
L 540.103201 216.669807 
L 541.799765 155.114896 
L 543.496329 162.351586 
L 545.192894 160.683238 
L 546.889458 279.959839 
L 548.586022 116.92967 
L 550.282587 162.641178 
L 551.979151 233.030791 
L 553.675715 200.469739 
L 555.372279 124.575123 
L 557.068844 275.31349 
L 558.765408 162.154831 
L 560.461972 34.03537 
L 562.158537 55.400647 
L 563.855101 42.508487 
L 565.551665 218.252492 
L 567.24823 24.686701 
L 568.944794 307.967019 
L 570.641358 34.107316 
L 572.337923 210.370758 
L 574.034487 39.089417 
L 575.731051 130.075518 
L 575.731051 130.075518 
" clip-path="url(#p1196b7109d)" style="fill: none; stroke: #ff7f0e; stroke-width: 1.5; stroke-linecap: square"/>
   </g>
   <g id="patch_3">
    <path d="M 43.094687 339.84 
L 43.094687 7.2 
" style="fill: none; stroke: #000000; stroke-width: 0.8; stroke-linejoin: miter; stroke-linecap: square"/>
   </g>
   <g id="patch_4">
    <path d="M 601.094687 339.84 
L 601.094687 7.2 
" style="fill: none; stroke: #000000; stroke-width: 0.8; stroke-linejoin: miter; stroke-linecap: square"/>
   </g>
   <g id="patch_5">
    <path d="M 43.094687 339.84 
L 601.094687 339.84 
" style="fill: none; stroke: #000000; stroke-width: 0.8; stroke-linejoin: miter; stroke-linecap: square"/>
   </g>
   <g id="patch_6">
    <path d="M 43.094687 7.2 
L 601.094687 7.2 
" style="fill: none; stroke: #000000; stroke-width: 0.8; stroke-linejoin: miter; stroke-linecap: square"/>
   </g>
   <g id="legend_1">
    <g id="patch_7">
     <path d="M 507.625 332.84 
L 591.294688 332.84 
Q 594.094687 332.84 594.094687 330.04 
L 594.094687 291.850625 
Q 594.094687 289.050625 591.294688 289.050625 
L 507.625 289.050625 
Q 504.825 289.050625 504.825 291.850625 
L 504.825 330.04 
Q 504.825 332.84 507.625 332.84 
z
" style="fill: #ffffff; opacity: 0.8; stroke: #cccccc; stroke-linejoin: miter"/>
    </g>
    <g id="line2d_15">
     <path d="M 510.425 299.550625 
L 524.425 299.550625 
L 538.425 299.550625 
" style="fill: none; stroke: #1f77b4; stroke-width: 1.5; stroke-linecap: square"/>
    </g>
    <g id="text_13">
     <!-- real -->
     <g transform="translate(549.625 304.450625)scale(0.14 -0.14)">
      <defs>
       <path id="TimesNewRomanPSMT-72" d="M 1038 2947 
L 1038 2303 
Q 1397 2947 1775 2947 
Q 1947 2947 2059 2842 
Q 2172 2738 2172 2600 
Q 2172 2478 2090 2393 
Q 2009 2309 1897 2309 
Q 1788 2309 1652 2417 
Q 1516 2525 1450 2525 
Q 1394 2525 1328 2463 
Q 1188 2334 1038 2041 
L 1038 669 
Q 1038 431 1097 309 
Q 1138 225 1241 169 
Q 1344 113 1538 113 
L 1538 0 
L 72 0 
L 72 113 
Q 291 113 397 181 
Q 475 231 506 341 
Q 522 394 522 644 
L 522 1753 
Q 522 2253 501 2348 
Q 481 2444 426 2487 
Q 372 2531 291 2531 
Q 194 2531 72 2484 
L 41 2597 
L 906 2947 
L 1038 2947 
z
" transform="scale(0.015625)"/>
       <path id="TimesNewRomanPSMT-65" d="M 681 1784 
Q 678 1147 991 784 
Q 1303 422 1725 422 
Q 2006 422 2214 576 
Q 2422 731 2563 1106 
L 2659 1044 
Q 2594 616 2278 264 
Q 1963 -88 1488 -88 
Q 972 -88 605 314 
Q 238 716 238 1394 
Q 238 2128 614 2539 
Q 991 2950 1559 2950 
Q 2041 2950 2350 2633 
Q 2659 2316 2659 1784 
L 681 1784 
z
M 681 1966 
L 2006 1966 
Q 1991 2241 1941 2353 
Q 1863 2528 1708 2628 
Q 1553 2728 1384 2728 
Q 1125 2728 920 2526 
Q 716 2325 681 1966 
z
" transform="scale(0.015625)"/>
       <path id="TimesNewRomanPSMT-61" d="M 1822 413 
Q 1381 72 1269 19 
Q 1100 -59 909 -59 
Q 613 -59 420 144 
Q 228 347 228 678 
Q 228 888 322 1041 
Q 450 1253 767 1440 
Q 1084 1628 1822 1897 
L 1822 2009 
Q 1822 2438 1686 2597 
Q 1550 2756 1291 2756 
Q 1094 2756 978 2650 
Q 859 2544 859 2406 
L 866 2225 
Q 866 2081 792 2003 
Q 719 1925 600 1925 
Q 484 1925 411 2006 
Q 338 2088 338 2228 
Q 338 2497 613 2722 
Q 888 2947 1384 2947 
Q 1766 2947 2009 2819 
Q 2194 2722 2281 2516 
Q 2338 2381 2338 1966 
L 2338 994 
Q 2338 584 2353 492 
Q 2369 400 2405 369 
Q 2441 338 2488 338 
Q 2538 338 2575 359 
Q 2641 400 2828 588 
L 2828 413 
Q 2478 -56 2159 -56 
Q 2006 -56 1915 50 
Q 1825 156 1822 413 
z
M 1822 616 
L 1822 1706 
Q 1350 1519 1213 1441 
Q 966 1303 859 1153 
Q 753 1003 753 825 
Q 753 600 887 451 
Q 1022 303 1197 303 
Q 1434 303 1822 616 
z
" transform="scale(0.015625)"/>
       <path id="TimesNewRomanPSMT-6c" d="M 1184 4444 
L 1184 647 
Q 1184 378 1223 290 
Q 1263 203 1344 158 
Q 1425 113 1647 113 
L 1647 0 
L 244 0 
L 244 113 
Q 441 113 512 153 
Q 584 194 625 287 
Q 666 381 666 647 
L 666 3247 
Q 666 3731 644 3842 
Q 622 3953 573 3993 
Q 525 4034 450 4034 
Q 369 4034 244 3984 
L 191 4094 
L 1044 4444 
L 1184 4444 
z
" transform="scale(0.015625)"/>
      </defs>
      <use xlink:href="#TimesNewRomanPSMT-72"/>
      <use xlink:href="#TimesNewRomanPSMT-65" x="33.300781"/>
      <use xlink:href="#TimesNewRomanPSMT-61" x="77.685547"/>
      <use xlink:href="#TimesNewRomanPSMT-6c" x="122.070312"/>
     </g>
    </g>
    <g id="line2d_16">
     <path d="M 510.425 319.345313 
L 524.425 319.345313 
L 538.425 319.345313 
" style="fill: none; stroke: #ff7f0e; stroke-width: 1.5; stroke-linecap: square"/>
    </g>
    <g id="text_14">
     <!-- predict -->
     <g transform="translate(549.625 324.245313)scale(0.14 -0.14)">
      <defs>
       <path id="TimesNewRomanPSMT-70" d="M -6 2578 
L 875 2934 
L 994 2934 
L 994 2266 
Q 1216 2644 1439 2795 
Q 1663 2947 1909 2947 
Q 2341 2947 2628 2609 
Q 2981 2197 2981 1534 
Q 2981 794 2556 309 
Q 2206 -88 1675 -88 
Q 1444 -88 1275 -22 
Q 1150 25 994 166 
L 994 -706 
Q 994 -1000 1030 -1079 
Q 1066 -1159 1155 -1206 
Q 1244 -1253 1478 -1253 
L 1478 -1369 
L -22 -1369 
L -22 -1253 
L 56 -1253 
Q 228 -1256 350 -1188 
Q 409 -1153 442 -1076 
Q 475 -1000 475 -688 
L 475 2019 
Q 475 2297 450 2372 
Q 425 2447 370 2484 
Q 316 2522 222 2522 
Q 147 2522 31 2478 
L -6 2578 
z
M 994 2081 
L 994 1013 
Q 994 666 1022 556 
Q 1066 375 1236 237 
Q 1406 100 1666 100 
Q 1978 100 2172 344 
Q 2425 663 2425 1241 
Q 2425 1897 2138 2250 
Q 1938 2494 1663 2494 
Q 1513 2494 1366 2419 
Q 1253 2363 994 2081 
z
" transform="scale(0.015625)"/>
       <path id="TimesNewRomanPSMT-64" d="M 2222 322 
Q 2013 103 1813 7 
Q 1613 -88 1381 -88 
Q 913 -88 563 304 
Q 213 697 213 1313 
Q 213 1928 600 2439 
Q 988 2950 1597 2950 
Q 1975 2950 2222 2709 
L 2222 3238 
Q 2222 3728 2198 3840 
Q 2175 3953 2125 3993 
Q 2075 4034 2000 4034 
Q 1919 4034 1784 3984 
L 1744 4094 
L 2597 4444 
L 2738 4444 
L 2738 1134 
Q 2738 631 2761 520 
Q 2784 409 2836 365 
Q 2888 322 2956 322 
Q 3041 322 3181 375 
L 3216 266 
L 2366 -88 
L 2222 -88 
L 2222 322 
z
M 2222 541 
L 2222 2016 
Q 2203 2228 2109 2403 
Q 2016 2578 1861 2667 
Q 1706 2756 1559 2756 
Q 1284 2756 1069 2509 
Q 784 2184 784 1559 
Q 784 928 1059 592 
Q 1334 256 1672 256 
Q 1956 256 2222 541 
z
" transform="scale(0.015625)"/>
       <path id="TimesNewRomanPSMT-69" d="M 928 4444 
Q 1059 4444 1151 4351 
Q 1244 4259 1244 4128 
Q 1244 3997 1151 3903 
Q 1059 3809 928 3809 
Q 797 3809 703 3903 
Q 609 3997 609 4128 
Q 609 4259 701 4351 
Q 794 4444 928 4444 
z
M 1188 2947 
L 1188 647 
Q 1188 378 1227 289 
Q 1266 200 1342 156 
Q 1419 113 1622 113 
L 1622 0 
L 231 0 
L 231 113 
Q 441 113 512 153 
Q 584 194 626 287 
Q 669 381 669 647 
L 669 1750 
Q 669 2216 641 2353 
Q 619 2453 572 2492 
Q 525 2531 444 2531 
Q 356 2531 231 2484 
L 188 2597 
L 1050 2947 
L 1188 2947 
z
" transform="scale(0.015625)"/>
       <path id="TimesNewRomanPSMT-63" d="M 2631 1088 
Q 2516 522 2178 217 
Q 1841 -88 1431 -88 
Q 944 -88 581 321 
Q 219 731 219 1428 
Q 219 2103 620 2525 
Q 1022 2947 1584 2947 
Q 2006 2947 2278 2723 
Q 2550 2500 2550 2259 
Q 2550 2141 2473 2067 
Q 2397 1994 2259 1994 
Q 2075 1994 1981 2113 
Q 1928 2178 1911 2362 
Q 1894 2547 1784 2644 
Q 1675 2738 1481 2738 
Q 1169 2738 978 2506 
Q 725 2200 725 1697 
Q 725 1184 976 792 
Q 1228 400 1656 400 
Q 1963 400 2206 609 
Q 2378 753 2541 1131 
L 2631 1088 
z
" transform="scale(0.015625)"/>
       <path id="TimesNewRomanPSMT-74" d="M 1031 3803 
L 1031 2863 
L 1700 2863 
L 1700 2644 
L 1031 2644 
L 1031 788 
Q 1031 509 1111 412 
Q 1191 316 1316 316 
Q 1419 316 1516 380 
Q 1613 444 1666 569 
L 1788 569 
Q 1678 263 1478 108 
Q 1278 -47 1066 -47 
Q 922 -47 784 33 
Q 647 113 581 261 
Q 516 409 516 719 
L 516 2644 
L 63 2644 
L 63 2747 
Q 234 2816 414 2980 
Q 594 3144 734 3369 
Q 806 3488 934 3803 
L 1031 3803 
z
" transform="scale(0.015625)"/>
      </defs>
      <use xlink:href="#TimesNewRomanPSMT-70"/>
      <use xlink:href="#TimesNewRomanPSMT-72" x="50"/>
      <use xlink:href="#TimesNewRomanPSMT-65" x="83.300781"/>
      <use xlink:href="#TimesNewRomanPSMT-64" x="127.685547"/>
      <use xlink:href="#TimesNewRomanPSMT-69" x="177.685547"/>
      <use xlink:href="#TimesNewRomanPSMT-63" x="205.46875"/>
      <use xlink:href="#TimesNewRomanPSMT-74" x="249.853516"/>
     </g>
    </g>
   </g>
  </g>
 </g>
 <defs>
  <clipPath id="p1196b7109d">
   <rect x="43.094687" y="7.2" width="558" height="332.64"/>
  </clipPath>
 </defs>
</svg>
