<?xml version="1.0" encoding="utf-8" standalone="no"?>
<!DOCTYPE svg PUBLIC "-//W3C//DTD SVG 1.1//EN"
  "http://www.w3.org/Graphics/SVG/1.1/DTD/svg11.dtd">
<svg xmlns:xlink="http://www.w3.org/1999/xlink" width="608.294688pt" height="366.755938pt" viewBox="0 0 608.294688 366.755938" xmlns="http://www.w3.org/2000/svg" version="1.1">
 <metadata>
  <rdf:RDF xmlns:dc="http://purl.org/dc/elements/1.1/" xmlns:cc="http://creativecommons.org/ns#" xmlns:rdf="http://www.w3.org/1999/02/22-rdf-syntax-ns#">
   <cc:Work>
    <dc:type rdf:resource="http://purl.org/dc/dcmitype/StillImage"/>
    <dc:date>2023-04-03T09:57:39.263155</dc:date>
    <dc:format>image/svg+xml</dc:format>
    <dc:creator>
     <cc:Agent>
      <dc:title>Matplotlib v3.5.3, https://matplotlib.org/</dc:title>
     </cc:Agent>
    </dc:creator>
   </cc:Work>
  </rdf:RDF>
 </metadata>
 <defs>
  <style type="text/css">*{stroke-linejoin: round; stroke-linecap: butt}</style>
 </defs>
 <g id="figure_1">
  <g id="patch_1">
   <path d="M -0 366.755938 
L 608.294688 366.755938 
L 608.294688 0 
L -0 0 
z
" style="fill: #ffffff"/>
  </g>
  <g id="axes_1">
   <g id="patch_2">
    <path d="M 43.094687 339.84 
L 601.094687 339.84 
L 601.094687 7.2 
L 43.094687 7.2 
z
" style="fill: #ffffff"/>
   </g>
   <g id="matplotlib.axis_1">
    <g id="xtick_1">
     <g id="line2d_1">
      <defs>
       <path id="m6d876c90b0" d="M 0 0 
L 0 3.5 
" style="stroke: #000000; stroke-width: 0.8"/>
      </defs>
      <g>
       <use xlink:href="#m6d876c90b0" x="68.458324" y="339.84" style="stroke: #000000; stroke-width: 0.8"/>
      </g>
     </g>
     <g id="text_1">
      <!-- 0 -->
      <g transform="translate(64.958324 356.56125)scale(0.14 -0.14)">
       <defs>
        <path id="TimesNewRomanPSMT-30" d="M 231 2094 
Q 231 2819 450 3342 
Q 669 3866 1031 4122 
Q 1313 4325 1613 4325 
Q 2100 4325 2488 3828 
Q 2972 3213 2972 2159 
Q 2972 1422 2759 906 
Q 2547 391 2217 158 
Q 1888 -75 1581 -75 
Q 975 -75 572 641 
Q 231 1244 231 2094 
z
M 844 2016 
Q 844 1141 1059 588 
Q 1238 122 1591 122 
Q 1759 122 1940 273 
Q 2122 425 2216 781 
Q 2359 1319 2359 2297 
Q 2359 3022 2209 3506 
Q 2097 3866 1919 4016 
Q 1791 4119 1609 4119 
Q 1397 4119 1231 3928 
Q 1006 3669 925 3112 
Q 844 2556 844 2016 
z
" transform="scale(0.015625)"/>
       </defs>
       <use xlink:href="#TimesNewRomanPSMT-30"/>
      </g>
     </g>
    </g>
    <g id="xtick_2">
     <g id="line2d_2">
      <g>
       <use xlink:href="#m6d876c90b0" x="153.286539" y="339.84" style="stroke: #000000; stroke-width: 0.8"/>
      </g>
     </g>
     <g id="text_2">
      <!-- 50 -->
      <g transform="translate(146.286539 356.56125)scale(0.14 -0.14)">
       <defs>
        <path id="TimesNewRomanPSMT-35" d="M 2778 4238 
L 2534 3706 
L 1259 3706 
L 981 3138 
Q 1809 3016 2294 2522 
Q 2709 2097 2709 1522 
Q 2709 1188 2573 903 
Q 2438 619 2231 419 
Q 2025 219 1772 97 
Q 1413 -75 1034 -75 
Q 653 -75 479 54 
Q 306 184 306 341 
Q 306 428 378 495 
Q 450 563 559 563 
Q 641 563 702 538 
Q 763 513 909 409 
Q 1144 247 1384 247 
Q 1750 247 2026 523 
Q 2303 800 2303 1197 
Q 2303 1581 2056 1914 
Q 1809 2247 1375 2428 
Q 1034 2569 447 2591 
L 1259 4238 
L 2778 4238 
z
" transform="scale(0.015625)"/>
       </defs>
       <use xlink:href="#TimesNewRomanPSMT-35"/>
       <use xlink:href="#TimesNewRomanPSMT-30" x="50"/>
      </g>
     </g>
    </g>
    <g id="xtick_3">
     <g id="line2d_3">
      <g>
       <use xlink:href="#m6d876c90b0" x="238.114754" y="339.84" style="stroke: #000000; stroke-width: 0.8"/>
      </g>
     </g>
     <g id="text_3">
      <!-- 100 -->
      <g transform="translate(227.614754 356.56125)scale(0.14 -0.14)">
       <defs>
        <path id="TimesNewRomanPSMT-31" d="M 750 3822 
L 1781 4325 
L 1884 4325 
L 1884 747 
Q 1884 391 1914 303 
Q 1944 216 2037 169 
Q 2131 122 2419 116 
L 2419 0 
L 825 0 
L 825 116 
Q 1125 122 1212 167 
Q 1300 213 1334 289 
Q 1369 366 1369 747 
L 1369 3034 
Q 1369 3497 1338 3628 
Q 1316 3728 1258 3775 
Q 1200 3822 1119 3822 
Q 1003 3822 797 3725 
L 750 3822 
z
" transform="scale(0.015625)"/>
       </defs>
       <use xlink:href="#TimesNewRomanPSMT-31"/>
       <use xlink:href="#TimesNewRomanPSMT-30" x="50"/>
       <use xlink:href="#TimesNewRomanPSMT-30" x="100"/>
      </g>
     </g>
    </g>
    <g id="xtick_4">
     <g id="line2d_4">
      <g>
       <use xlink:href="#m6d876c90b0" x="322.94297" y="339.84" style="stroke: #000000; stroke-width: 0.8"/>
      </g>
     </g>
     <g id="text_4">
      <!-- 150 -->
      <g transform="translate(312.44297 356.56125)scale(0.14 -0.14)">
       <use xlink:href="#TimesNewRomanPSMT-31"/>
       <use xlink:href="#TimesNewRomanPSMT-35" x="50"/>
       <use xlink:href="#TimesNewRomanPSMT-30" x="100"/>
      </g>
     </g>
    </g>
    <g id="xtick_5">
     <g id="line2d_5">
      <g>
       <use xlink:href="#m6d876c90b0" x="407.771185" y="339.84" style="stroke: #000000; stroke-width: 0.8"/>
      </g>
     </g>
     <g id="text_5">
      <!-- 200 -->
      <g transform="translate(397.271185 356.56125)scale(0.14 -0.14)">
       <defs>
        <path id="TimesNewRomanPSMT-32" d="M 2934 816 
L 2638 0 
L 138 0 
L 138 116 
Q 1241 1122 1691 1759 
Q 2141 2397 2141 2925 
Q 2141 3328 1894 3587 
Q 1647 3847 1303 3847 
Q 991 3847 742 3664 
Q 494 3481 375 3128 
L 259 3128 
Q 338 3706 661 4015 
Q 984 4325 1469 4325 
Q 1984 4325 2329 3994 
Q 2675 3663 2675 3213 
Q 2675 2891 2525 2569 
Q 2294 2063 1775 1497 
Q 997 647 803 472 
L 1909 472 
Q 2247 472 2383 497 
Q 2519 522 2628 598 
Q 2738 675 2819 816 
L 2934 816 
z
" transform="scale(0.015625)"/>
       </defs>
       <use xlink:href="#TimesNewRomanPSMT-32"/>
       <use xlink:href="#TimesNewRomanPSMT-30" x="50"/>
       <use xlink:href="#TimesNewRomanPSMT-30" x="100"/>
      </g>
     </g>
    </g>
    <g id="xtick_6">
     <g id="line2d_6">
      <g>
       <use xlink:href="#m6d876c90b0" x="492.5994" y="339.84" style="stroke: #000000; stroke-width: 0.8"/>
      </g>
     </g>
     <g id="text_6">
      <!-- 250 -->
      <g transform="translate(482.0994 356.56125)scale(0.14 -0.14)">
       <use xlink:href="#TimesNewRomanPSMT-32"/>
       <use xlink:href="#TimesNewRomanPSMT-35" x="50"/>
       <use xlink:href="#TimesNewRomanPSMT-30" x="100"/>
      </g>
     </g>
    </g>
    <g id="xtick_7">
     <g id="line2d_7">
      <g>
       <use xlink:href="#m6d876c90b0" x="577.427615" y="339.84" style="stroke: #000000; stroke-width: 0.8"/>
      </g>
     </g>
     <g id="text_7">
      <!-- 300 -->
      <g transform="translate(566.927615 356.56125)scale(0.14 -0.14)">
       <defs>
        <path id="TimesNewRomanPSMT-33" d="M 325 3431 
Q 506 3859 782 4092 
Q 1059 4325 1472 4325 
Q 1981 4325 2253 3994 
Q 2459 3747 2459 3466 
Q 2459 3003 1878 2509 
Q 2269 2356 2469 2072 
Q 2669 1788 2669 1403 
Q 2669 853 2319 450 
Q 1863 -75 997 -75 
Q 569 -75 414 31 
Q 259 138 259 259 
Q 259 350 332 419 
Q 406 488 509 488 
Q 588 488 669 463 
Q 722 447 909 348 
Q 1097 250 1169 231 
Q 1284 197 1416 197 
Q 1734 197 1970 444 
Q 2206 691 2206 1028 
Q 2206 1275 2097 1509 
Q 2016 1684 1919 1775 
Q 1784 1900 1550 2001 
Q 1316 2103 1072 2103 
L 972 2103 
L 972 2197 
Q 1219 2228 1467 2375 
Q 1716 2522 1828 2728 
Q 1941 2934 1941 3181 
Q 1941 3503 1739 3701 
Q 1538 3900 1238 3900 
Q 753 3900 428 3381 
L 325 3431 
z
" transform="scale(0.015625)"/>
       </defs>
       <use xlink:href="#TimesNewRomanPSMT-33"/>
       <use xlink:href="#TimesNewRomanPSMT-30" x="50"/>
       <use xlink:href="#TimesNewRomanPSMT-30" x="100"/>
      </g>
     </g>
    </g>
   </g>
   <g id="matplotlib.axis_2">
    <g id="ytick_1">
     <g id="line2d_8">
      <defs>
       <path id="me8024cba29" d="M 0 0 
L -3.5 0 
" style="stroke: #000000; stroke-width: 0.8"/>
      </defs>
      <g>
       <use xlink:href="#me8024cba29" x="43.094687" y="300.860922" style="stroke: #000000; stroke-width: 0.8"/>
      </g>
     </g>
     <g id="text_8">
      <!-- −400 -->
      <g transform="translate(7.2 305.721547)scale(0.14 -0.14)">
       <defs>
        <path id="TimesNewRomanPSMT-2212" d="M 3484 2000 
L 116 2000 
L 116 2256 
L 3484 2256 
L 3484 2000 
z
" transform="scale(0.015625)"/>
        <path id="TimesNewRomanPSMT-34" d="M 2978 1563 
L 2978 1119 
L 2409 1119 
L 2409 0 
L 1894 0 
L 1894 1119 
L 100 1119 
L 100 1519 
L 2066 4325 
L 2409 4325 
L 2409 1563 
L 2978 1563 
z
M 1894 1563 
L 1894 3666 
L 406 1563 
L 1894 1563 
z
" transform="scale(0.015625)"/>
       </defs>
       <use xlink:href="#TimesNewRomanPSMT-2212"/>
       <use xlink:href="#TimesNewRomanPSMT-34" x="56.396484"/>
       <use xlink:href="#TimesNewRomanPSMT-30" x="106.396484"/>
       <use xlink:href="#TimesNewRomanPSMT-30" x="156.396484"/>
      </g>
     </g>
    </g>
    <g id="ytick_2">
     <g id="line2d_9">
      <g>
       <use xlink:href="#me8024cba29" x="43.094687" y="230.799947" style="stroke: #000000; stroke-width: 0.8"/>
      </g>
     </g>
     <g id="text_9">
      <!-- −200 -->
      <g transform="translate(7.2 235.660572)scale(0.14 -0.14)">
       <use xlink:href="#TimesNewRomanPSMT-2212"/>
       <use xlink:href="#TimesNewRomanPSMT-32" x="56.396484"/>
       <use xlink:href="#TimesNewRomanPSMT-30" x="106.396484"/>
       <use xlink:href="#TimesNewRomanPSMT-30" x="156.396484"/>
      </g>
     </g>
    </g>
    <g id="ytick_3">
     <g id="line2d_10">
      <g>
       <use xlink:href="#me8024cba29" x="43.094687" y="160.738971" style="stroke: #000000; stroke-width: 0.8"/>
      </g>
     </g>
     <g id="text_10">
      <!-- 0 -->
      <g transform="translate(29.094687 165.599596)scale(0.14 -0.14)">
       <use xlink:href="#TimesNewRomanPSMT-30"/>
      </g>
     </g>
    </g>
    <g id="ytick_4">
     <g id="line2d_11">
      <g>
       <use xlink:href="#me8024cba29" x="43.094687" y="90.677996" style="stroke: #000000; stroke-width: 0.8"/>
      </g>
     </g>
     <g id="text_11">
      <!-- 200 -->
      <g transform="translate(15.094687 95.538621)scale(0.14 -0.14)">
       <use xlink:href="#TimesNewRomanPSMT-32"/>
       <use xlink:href="#TimesNewRomanPSMT-30" x="50"/>
       <use xlink:href="#TimesNewRomanPSMT-30" x="100"/>
      </g>
     </g>
    </g>
    <g id="ytick_5">
     <g id="line2d_12">
      <g>
       <use xlink:href="#me8024cba29" x="43.094687" y="20.617021" style="stroke: #000000; stroke-width: 0.8"/>
      </g>
     </g>
     <g id="text_12">
      <!-- 400 -->
      <g transform="translate(15.094687 25.477646)scale(0.14 -0.14)">
       <use xlink:href="#TimesNewRomanPSMT-34"/>
       <use xlink:href="#TimesNewRomanPSMT-30" x="50"/>
       <use xlink:href="#TimesNewRomanPSMT-30" x="100"/>
      </g>
     </g>
    </g>
   </g>
   <g id="line2d_13">
    <path d="M 68.458324 115.319888 
L 70.154888 217.79885 
L 71.851452 162.452569 
L 73.548017 44.214963 
L 75.244581 178.832012 
L 76.941145 26.283529 
L 78.63771 54.171563 
L 80.334274 226.752625 
L 82.030838 132.917045 
L 83.727403 211.949048 
L 85.423967 175.03561 
L 87.120531 68.760251 
L 88.817096 284.844726 
L 90.51366 281.239337 
L 92.210224 61.215205 
L 93.906788 221.643004 
L 95.603353 240.672759 
L 97.299917 104.360465 
L 98.996481 134.230266 
L 102.38961 314.3325 
L 104.086174 272.118422 
L 105.782739 31.321525 
L 107.479303 134.612292 
L 109.175867 64.247542 
L 110.872431 307.193349 
L 112.568996 280.833431 
L 114.26556 105.196154 
L 115.962124 220.449163 
L 117.658689 216.867652 
L 119.355253 189.051255 
L 121.051817 237.473277 
L 122.748382 259.511508 
L 124.444946 284.796972 
L 126.14151 79.242137 
L 127.838075 282.289921 
L 129.534639 131.579947 
L 131.231203 173.841773 
L 132.927767 133.991498 
L 134.624332 184.204277 
L 136.320896 120.954799 
L 138.01746 37.601109 
L 139.714025 124.488556 
L 141.410589 164.911873 
L 143.107153 297.260633 
L 144.803718 30.008309 
L 146.500282 32.204963 
L 148.196846 212.020674 
L 149.893411 276.416242 
L 151.589975 284.868608 
L 153.286539 206.290258 
L 154.983103 74.753311 
L 156.679668 284.868608 
L 158.376232 115.701917 
L 160.072796 115.582532 
L 161.769361 229.64171 
L 163.465925 172.027141 
L 165.162489 57.514308 
L 166.859054 232.721807 
L 168.555618 277.228043 
L 170.252182 47.032423 
L 171.948746 216.724395 
L 173.645311 172.647935 
L 175.341875 169.448453 
L 177.038439 184.443043 
L 178.735004 64.343051 
L 180.431568 244.707931 
L 182.128132 174.796843 
L 183.824697 31.990074 
L 185.521261 264.239106 
L 187.217825 221.547496 
L 188.91439 41.278124 
L 190.610954 30.318706 
L 192.307518 312.899894 
L 195.700647 199.652527 
L 197.397211 220.807315 
L 199.093775 39.8694 
L 200.79034 34.688142 
L 202.486904 170.64229 
L 204.183468 64.008782 
L 205.880033 189.982448 
L 207.576597 67.184382 
L 210.969726 201.085131 
L 212.66629 254.903302 
L 214.362854 249.17288 
L 216.059418 282.982341 
L 217.755983 40.466312 
L 219.452547 117.325536 
L 221.149111 184.681812 
L 222.845676 72.532774 
L 224.54224 242.15312 
L 226.238804 278.66065 
L 227.935369 131.747084 
L 229.631933 179.810957 
L 231.328497 200.082307 
L 233.025061 285.489403 
L 234.721626 210.229921 
L 236.41819 39.367985 
L 238.114754 104.551483 
L 239.811319 157.032549 
L 241.507883 167.060779 
L 243.204447 154.024081 
L 244.901012 202.637118 
L 246.597576 318.009515 
L 248.29414 238.738744 
L 249.990705 187.54702 
L 251.687269 180.336246 
L 253.383833 231.289206 
L 255.080397 40.179797 
L 256.776962 34.425499 
L 258.473526 279.11431 
L 260.17009 44.477607 
L 261.866655 282.075021 
L 263.563219 257.696878 
L 265.259783 318.224404 
L 266.956348 230.525148 
L 268.652912 226.394474 
L 270.349476 276.631131 
L 272.04604 318.654192 
L 273.742605 220.425286 
L 275.439169 54.434206 
L 277.135733 159.826128 
L 278.832298 184.419169 
L 280.528862 34.234492 
L 282.225426 28.695083 
L 283.921991 41.302006 
L 285.618555 185.899524 
L 287.315119 90.702974 
L 289.011684 32.992892 
L 290.708248 313.019274 
L 292.404812 31.226016 
L 294.101376 269.372599 
L 295.797941 267.414706 
L 297.494505 103.715794 
L 299.191069 27.549002 
L 300.887634 281.024448 
L 302.584198 237.831429 
L 304.280762 299.50504 
L 305.977327 214.145707 
L 307.673891 166.702628 
L 309.370455 231.671229 
L 311.06702 229.020916 
L 312.763584 176.468214 
L 314.460148 47.533826 
L 316.156712 149.893405 
L 317.853277 180.694396 
L 319.549841 217.416821 
L 321.246405 32.276599 
L 322.94297 214.002444 
L 324.639534 270.447054 
L 326.336098 48.130749 
L 328.032663 133.513963 
L 329.729227 31.631922 
L 331.425791 282.266038 
L 333.122355 274.553857 
L 334.81892 206.409644 
L 336.515484 200.344953 
L 338.212048 80.603112 
L 339.908613 186.01891 
L 341.605177 35.380573 
L 343.301741 184.801195 
L 344.998306 316.624663 
L 346.69487 211.901294 
L 348.391434 34.735896 
L 350.087999 42.543596 
L 351.784563 188.597598 
L 353.481127 34.592633 
L 355.177691 74.371282 
L 356.874256 304.757925 
L 358.57082 197.670757 
L 360.267384 239.526678 
L 361.963949 219.517971 
L 363.660513 191.295669 
L 365.357077 30.724612 
L 367.053642 173.961156 
L 368.750206 230.405763 
L 370.44677 165.246147 
L 372.143335 186.186047 
L 373.839899 200.034553 
L 375.536463 256.001629 
L 377.233027 223.218868 
L 378.929592 45.957968 
L 380.626156 205.621709 
L 382.32272 222.454811 
L 384.019285 218.300259 
L 385.715849 107.154042 
L 387.412413 121.002553 
L 389.108978 39.367985 
L 390.805542 112.95609 
L 392.502106 120.620524 
L 394.19867 28.671211 
L 395.895235 73.201324 
L 397.591799 134.063129 
L 399.288363 27.19085 
L 400.984928 245.20934 
L 402.681492 280.546916 
L 404.378056 40.752838 
L 406.074621 192.919287 
L 407.771185 216.987038 
L 409.467749 299.361778 
L 411.164314 209.012208 
L 412.860878 36.93256 
L 416.254006 311.825439 
L 417.950571 167.060779 
L 419.647135 154.358355 
L 421.343699 305.330965 
L 423.040264 133.752732 
L 424.736828 200.392705 
L 426.433392 323.214645 
L 428.129957 187.594774 
L 429.826521 237.210634 
L 431.523085 27.214722 
L 433.219649 67.423153 
L 434.916214 286.13407 
L 436.612778 285.01186 
L 438.309342 90.392577 
L 440.005907 99.94327 
L 441.702471 155.074657 
L 443.399035 34.78365 
L 445.0956 131.890344 
L 446.792164 192.179107 
L 448.488728 150.060542 
L 450.185293 34.091229 
L 451.881857 129.192274 
L 453.578421 30.032181 
L 455.274985 31.679676 
L 456.97155 202.589366 
L 458.668114 95.144047 
L 460.364678 51.473495 
L 462.061243 74.060884 
L 463.757807 207.173701 
L 465.454371 205.788849 
L 467.150936 259.29662 
L 468.8475 215.029145 
L 470.544064 158.13088 
L 472.240629 157.056426 
L 473.937193 304.519153 
L 475.633757 102.569712 
L 477.330321 135.973268 
L 479.026886 28.336931 
L 480.72345 138.599708 
L 482.420014 134.134758 
L 484.116579 274.888126 
L 485.813143 290.575142 
L 487.509707 42.519714 
L 489.206272 320.683711 
L 490.902836 127.377641 
L 492.5994 281.549735 
L 494.295964 282.003395 
L 495.992529 174.128294 
L 497.689093 262.328968 
L 499.385657 33.183909 
L 501.082222 280.952822 
L 502.778786 172.83895 
L 504.47535 73.822118 
L 506.171915 223.171114 
L 507.868479 210.110535 
L 509.565043 173.746266 
L 511.261608 35.762597 
L 512.958172 223.457634 
L 514.654736 173.722389 
L 516.3513 27.357984 
L 518.047865 323.644422 
L 519.744429 145.094181 
L 521.440993 228.328489 
L 523.137558 285.059615 
L 524.834122 188.597598 
L 526.530686 64.175916 
L 528.227251 205.645586 
L 529.923815 29.292006 
L 531.620379 214.265087 
L 533.316944 281.860132 
L 535.013508 197.79014 
L 536.710072 272.404947 
L 538.406636 210.158289 
L 540.103201 215.840957 
L 541.799765 150.418693 
L 543.496329 151.779667 
L 545.192894 156.793782 
L 546.889458 281.096075 
L 548.586022 120.142989 
L 550.282587 163.90905 
L 551.979151 236.446582 
L 553.675715 196.954456 
L 555.372279 132.439511 
L 557.068844 273.670409 
L 560.461972 34.998539 
L 562.158537 49.085813 
L 563.855101 45.384927 
L 565.551665 220.711807 
L 567.24823 22.32 
L 568.944794 306.357666 
L 570.641358 27.119224 
L 572.337923 202.493858 
L 574.034487 41.707902 
L 575.731051 133.561717 
L 575.731051 133.561717 
" clip-path="url(#p9ca809f5ae)" style="fill: none; stroke: #1f77b4; stroke-width: 1.5; stroke-linecap: square"/>
   </g>
   <g id="line2d_14">
    <path d="M 68.458324 114.717064 
L 70.154888 220.735128 
L 71.851452 175.720419 
L 73.548017 47.272883 
L 75.244581 172.195525 
L 76.941145 31.757546 
L 78.63771 53.317246 
L 80.334274 228.918608 
L 82.030838 139.135486 
L 83.727403 207.855683 
L 85.423967 177.899752 
L 87.120531 72.287653 
L 88.817096 285.642544 
L 90.51366 283.593493 
L 92.210224 63.890449 
L 93.906788 225.594603 
L 95.603353 248.222985 
L 97.299917 106.692001 
L 98.996481 133.001887 
L 102.38961 313.430033 
L 104.086174 274.118061 
L 105.782739 30.752857 
L 107.479303 143.366576 
L 109.175867 64.509886 
L 110.872431 309.474949 
L 112.568996 288.320418 
L 114.26556 110.488695 
L 115.962124 222.666776 
L 117.658689 215.571584 
L 119.355253 190.123858 
L 121.051817 240.419882 
L 122.748382 256.162862 
L 124.444946 277.692896 
L 126.14151 83.44633 
L 127.838075 279.323533 
L 129.534639 130.859758 
L 131.231203 176.322452 
L 132.927767 125.99444 
L 134.624332 179.930129 
L 136.320896 125.534395 
L 138.01746 41.226532 
L 139.714025 125.183104 
L 141.410589 161.548709 
L 143.107153 300.972979 
L 144.803718 32.459278 
L 146.500282 32.635425 
L 148.196846 220.942795 
L 149.893411 280.941929 
L 151.589975 284.139551 
L 153.286539 207.26015 
L 154.983103 86.38039 
L 156.679668 285.341928 
L 158.376232 115.837729 
L 160.072796 116.947959 
L 161.769361 233.170422 
L 163.465925 161.699867 
L 165.162489 59.810265 
L 166.859054 236.260589 
L 168.555618 269.062929 
L 170.252182 50.08535 
L 171.948746 223.165507 
L 173.645311 191.020184 
L 175.341875 170.584275 
L 177.038439 180.482392 
L 178.735004 68.845914 
L 180.431568 240.591373 
L 182.128132 177.503897 
L 183.824697 37.809605 
L 185.521261 256.554539 
L 187.217825 228.410934 
L 188.91439 56.947212 
L 190.610954 30.887417 
L 192.307518 314.492344 
L 194.004082 251.655659 
L 195.700647 208.620286 
L 197.397211 228.584408 
L 199.093775 43.402008 
L 200.79034 31.195356 
L 202.486904 161.660531 
L 204.183468 64.910992 
L 205.880033 195.829136 
L 207.576597 72.839339 
L 209.273161 138.794391 
L 210.969726 199.38754 
L 212.66629 250.83615 
L 214.362854 247.558178 
L 216.059418 274.136769 
L 217.755983 41.090325 
L 219.452547 118.281746 
L 221.149111 182.690356 
L 222.845676 71.717884 
L 224.54224 251.144494 
L 226.238804 275.4911 
L 227.935369 131.12793 
L 229.631933 183.443355 
L 231.328497 203.969106 
L 233.025061 277.316004 
L 234.721626 213.759434 
L 236.41819 39.914065 
L 238.114754 101.948421 
L 239.811319 157.58523 
L 241.507883 169.619979 
L 243.204447 158.906234 
L 244.901012 206.393758 
L 246.597576 318.503211 
L 248.29414 242.536667 
L 249.990705 188.494577 
L 251.687269 191.135055 
L 253.383833 239.977618 
L 255.080397 44.512543 
L 256.776962 34.590324 
L 258.473526 284.986855 
L 260.17009 44.402089 
L 261.866655 279.394806 
L 263.563219 253.499495 
L 265.259783 318.739192 
L 266.956348 234.155355 
L 268.652912 230.497145 
L 270.349476 267.428764 
L 272.04604 320.306135 
L 273.742605 220.953149 
L 275.439169 57.095595 
L 277.135733 162.60618 
L 278.832298 182.506983 
L 280.528862 34.433901 
L 282.225426 30.298095 
L 283.921991 43.002976 
L 285.618555 186.955811 
L 287.315119 94.880709 
L 289.011684 30.876267 
L 290.708248 312.563027 
L 292.404812 32.038491 
L 294.101376 263.804411 
L 295.797941 269.426084 
L 297.494505 105.943182 
L 299.191069 30.150203 
L 300.887634 282.237794 
L 302.584198 243.665414 
L 304.280762 304.587957 
L 305.977327 211.008224 
L 307.673891 162.058064 
L 309.370455 226.33597 
L 311.06702 238.133883 
L 312.763584 190.228213 
L 314.460148 50.374323 
L 316.156712 155.743617 
L 317.853277 174.037089 
L 319.549841 223.42118 
L 321.246405 30.812723 
L 322.94297 216.141872 
L 324.639534 262.923603 
L 326.336098 48.059465 
L 328.032663 138.453274 
L 329.729227 31.989646 
L 331.425791 289.178177 
L 333.122355 269.648071 
L 334.81892 213.544417 
L 336.515484 202.454225 
L 338.212048 84.387357 
L 339.908613 186.895415 
L 341.605177 36.231352 
L 343.301741 185.617104 
L 344.998306 316.540539 
L 346.69487 220.465867 
L 348.391434 31.297899 
L 350.087999 46.777851 
L 351.784563 191.362938 
L 353.481127 31.394252 
L 355.177691 85.287868 
L 356.874256 307.708394 
L 358.57082 197.045127 
L 360.267384 244.814916 
L 361.963949 224.162162 
L 363.660513 194.530668 
L 365.357077 31.219474 
L 367.053642 161.797815 
L 368.750206 234.014631 
L 370.44677 166.169346 
L 372.143335 189.804465 
L 373.839899 198.17881 
L 375.536463 251.860552 
L 377.233027 227.089075 
L 378.929592 60.190033 
L 380.626156 202.977347 
L 382.32272 226.233882 
L 384.019285 223.676885 
L 385.715849 109.431323 
L 387.412413 125.069138 
L 389.108978 43.091236 
L 390.805542 113.504761 
L 392.502106 124.114171 
L 394.19867 30.193938 
L 397.591799 129.827046 
L 399.288363 30.235813 
L 400.984928 246.533711 
L 402.681492 287.931617 
L 404.378056 42.625688 
L 406.074621 196.114603 
L 407.771185 217.67848 
L 409.467749 304.414611 
L 411.164314 212.663095 
L 412.860878 37.09373 
L 416.254006 311.522653 
L 417.950571 161.594766 
L 419.647135 162.288758 
L 421.343699 308.05515 
L 423.040264 133.796004 
L 424.736828 209.030623 
L 426.433392 322.311312 
L 428.129957 192.111118 
L 429.826521 240.549734 
L 431.523085 30.181323 
L 433.219649 72.977198 
L 434.916214 292.802039 
L 436.612778 284.740761 
L 438.309342 94.594263 
L 440.005907 98.434125 
L 441.702471 162.354542 
L 443.399035 31.214567 
L 445.0956 130.954261 
L 446.792164 198.003417 
L 448.488728 155.930075 
L 450.185293 31.555443 
L 451.881857 128.894603 
L 453.578421 35.635658 
L 455.274985 34.103566 
L 456.97155 202.926931 
L 458.668114 96.740725 
L 460.364678 50.753995 
L 462.061243 79.060939 
L 463.757807 207.930217 
L 465.454371 206.409895 
L 467.150936 260.39361 
L 468.8475 213.844327 
L 470.544064 161.123098 
L 472.240629 161.440105 
L 473.937193 305.82635 
L 475.633757 103.47675 
L 477.330321 126.901942 
L 479.026886 34.083607 
L 480.72345 144.638783 
L 482.420014 135.97938 
L 484.116579 278.476635 
L 485.813143 279.382287 
L 487.509707 42.895847 
L 489.206272 320.801381 
L 490.902836 127.785599 
L 492.5994 280.595408 
L 494.295964 271.910011 
L 495.992529 161.879279 
L 497.689093 258.935261 
L 499.385657 30.889021 
L 501.082222 282.300675 
L 502.778786 161.732531 
L 504.47535 78.906884 
L 506.171915 223.442721 
L 507.868479 205.778826 
L 509.565043 161.781499 
L 511.261608 35.841439 
L 512.958172 223.034169 
L 514.654736 169.062387 
L 516.3513 30.157901 
L 518.047865 324.72 
L 519.744429 152.024894 
L 523.137558 285.041355 
L 524.834122 194.277069 
L 526.530686 68.570624 
L 528.227251 203.067922 
L 529.923815 30.429566 
L 531.620379 217.132556 
L 533.316944 279.900326 
L 535.013508 203.018449 
L 536.710072 274.453153 
L 538.406636 206.411146 
L 540.103201 216.511537 
L 541.799765 156.303717 
L 543.496329 161.410495 
L 545.192894 162.474356 
L 546.889458 282.174859 
L 548.586022 121.019821 
L 550.282587 161.51579 
L 551.979151 231.879961 
L 553.675715 200.23719 
L 555.372279 119.573276 
L 557.068844 274.527569 
L 558.765408 162.192659 
L 560.461972 39.828338 
L 562.158537 48.878162 
L 563.855101 48.628679 
L 565.551665 217.473042 
L 567.24823 29.160983 
L 568.944794 308.748576 
L 570.641358 30.189063 
L 572.337923 211.697876 
L 574.034487 45.111797 
L 575.731051 135.459193 
L 575.731051 135.459193 
" clip-path="url(#p9ca809f5ae)" style="fill: none; stroke: #ff7f0e; stroke-width: 1.5; stroke-linecap: square"/>
   </g>
   <g id="patch_3">
    <path d="M 43.094687 339.84 
L 43.094687 7.2 
" style="fill: none; stroke: #000000; stroke-width: 0.8; stroke-linejoin: miter; stroke-linecap: square"/>
   </g>
   <g id="patch_4">
    <path d="M 601.094687 339.84 
L 601.094687 7.2 
" style="fill: none; stroke: #000000; stroke-width: 0.8; stroke-linejoin: miter; stroke-linecap: square"/>
   </g>
   <g id="patch_5">
    <path d="M 43.094687 339.84 
L 601.094687 339.84 
" style="fill: none; stroke: #000000; stroke-width: 0.8; stroke-linejoin: miter; stroke-linecap: square"/>
   </g>
   <g id="patch_6">
    <path d="M 43.094687 7.2 
L 601.094687 7.2 
" style="fill: none; stroke: #000000; stroke-width: 0.8; stroke-linejoin: miter; stroke-linecap: square"/>
   </g>
   <g id="legend_1">
    <g id="patch_7">
     <path d="M 52.894687 332.84 
L 136.564375 332.84 
Q 139.364375 332.84 139.364375 330.04 
L 139.364375 291.850625 
Q 139.364375 289.050625 136.564375 289.050625 
L 52.894687 289.050625 
Q 50.094687 289.050625 50.094687 291.850625 
L 50.094687 330.04 
Q 50.094687 332.84 52.894687 332.84 
z
" style="fill: #ffffff; opacity: 0.8; stroke: #cccccc; stroke-linejoin: miter"/>
    </g>
    <g id="line2d_15">
     <path d="M 55.694688 299.550625 
L 69.694688 299.550625 
L 83.694688 299.550625 
" style="fill: none; stroke: #1f77b4; stroke-width: 1.5; stroke-linecap: square"/>
    </g>
    <g id="text_13">
     <!-- real -->
     <g transform="translate(94.894688 304.450625)scale(0.14 -0.14)">
      <defs>
       <path id="TimesNewRomanPSMT-72" d="M 1038 2947 
L 1038 2303 
Q 1397 2947 1775 2947 
Q 1947 2947 2059 2842 
Q 2172 2738 2172 2600 
Q 2172 2478 2090 2393 
Q 2009 2309 1897 2309 
Q 1788 2309 1652 2417 
Q 1516 2525 1450 2525 
Q 1394 2525 1328 2463 
Q 1188 2334 1038 2041 
L 1038 669 
Q 1038 431 1097 309 
Q 1138 225 1241 169 
Q 1344 113 1538 113 
L 1538 0 
L 72 0 
L 72 113 
Q 291 113 397 181 
Q 475 231 506 341 
Q 522 394 522 644 
L 522 1753 
Q 522 2253 501 2348 
Q 481 2444 426 2487 
Q 372 2531 291 2531 
Q 194 2531 72 2484 
L 41 2597 
L 906 2947 
L 1038 2947 
z
" transform="scale(0.015625)"/>
       <path id="TimesNewRomanPSMT-65" d="M 681 1784 
Q 678 1147 991 784 
Q 1303 422 1725 422 
Q 2006 422 2214 576 
Q 2422 731 2563 1106 
L 2659 1044 
Q 2594 616 2278 264 
Q 1963 -88 1488 -88 
Q 972 -88 605 314 
Q 238 716 238 1394 
Q 238 2128 614 2539 
Q 991 2950 1559 2950 
Q 2041 2950 2350 2633 
Q 2659 2316 2659 1784 
L 681 1784 
z
M 681 1966 
L 2006 1966 
Q 1991 2241 1941 2353 
Q 1863 2528 1708 2628 
Q 1553 2728 1384 2728 
Q 1125 2728 920 2526 
Q 716 2325 681 1966 
z
" transform="scale(0.015625)"/>
       <path id="TimesNewRomanPSMT-61" d="M 1822 413 
Q 1381 72 1269 19 
Q 1100 -59 909 -59 
Q 613 -59 420 144 
Q 228 347 228 678 
Q 228 888 322 1041 
Q 450 1253 767 1440 
Q 1084 1628 1822 1897 
L 1822 2009 
Q 1822 2438 1686 2597 
Q 1550 2756 1291 2756 
Q 1094 2756 978 2650 
Q 859 2544 859 2406 
L 866 2225 
Q 866 2081 792 2003 
Q 719 1925 600 1925 
Q 484 1925 411 2006 
Q 338 2088 338 2228 
Q 338 2497 613 2722 
Q 888 2947 1384 2947 
Q 1766 2947 2009 2819 
Q 2194 2722 2281 2516 
Q 2338 2381 2338 1966 
L 2338 994 
Q 2338 584 2353 492 
Q 2369 400 2405 369 
Q 2441 338 2488 338 
Q 2538 338 2575 359 
Q 2641 400 2828 588 
L 2828 413 
Q 2478 -56 2159 -56 
Q 2006 -56 1915 50 
Q 1825 156 1822 413 
z
M 1822 616 
L 1822 1706 
Q 1350 1519 1213 1441 
Q 966 1303 859 1153 
Q 753 1003 753 825 
Q 753 600 887 451 
Q 1022 303 1197 303 
Q 1434 303 1822 616 
z
" transform="scale(0.015625)"/>
       <path id="TimesNewRomanPSMT-6c" d="M 1184 4444 
L 1184 647 
Q 1184 378 1223 290 
Q 1263 203 1344 158 
Q 1425 113 1647 113 
L 1647 0 
L 244 0 
L 244 113 
Q 441 113 512 153 
Q 584 194 625 287 
Q 666 381 666 647 
L 666 3247 
Q 666 3731 644 3842 
Q 622 3953 573 3993 
Q 525 4034 450 4034 
Q 369 4034 244 3984 
L 191 4094 
L 1044 4444 
L 1184 4444 
z
" transform="scale(0.015625)"/>
      </defs>
      <use xlink:href="#TimesNewRomanPSMT-72"/>
      <use xlink:href="#TimesNewRomanPSMT-65" x="33.300781"/>
      <use xlink:href="#TimesNewRomanPSMT-61" x="77.685547"/>
      <use xlink:href="#TimesNewRomanPSMT-6c" x="122.070312"/>
     </g>
    </g>
    <g id="line2d_16">
     <path d="M 55.694688 319.345313 
L 69.694688 319.345313 
L 83.694688 319.345313 
" style="fill: none; stroke: #ff7f0e; stroke-width: 1.5; stroke-linecap: square"/>
    </g>
    <g id="text_14">
     <!-- predict -->
     <g transform="translate(94.894688 324.245313)scale(0.14 -0.14)">
      <defs>
       <path id="TimesNewRomanPSMT-70" d="M -6 2578 
L 875 2934 
L 994 2934 
L 994 2266 
Q 1216 2644 1439 2795 
Q 1663 2947 1909 2947 
Q 2341 2947 2628 2609 
Q 2981 2197 2981 1534 
Q 2981 794 2556 309 
Q 2206 -88 1675 -88 
Q 1444 -88 1275 -22 
Q 1150 25 994 166 
L 994 -706 
Q 994 -1000 1030 -1079 
Q 1066 -1159 1155 -1206 
Q 1244 -1253 1478 -1253 
L 1478 -1369 
L -22 -1369 
L -22 -1253 
L 56 -1253 
Q 228 -1256 350 -1188 
Q 409 -1153 442 -1076 
Q 475 -1000 475 -688 
L 475 2019 
Q 475 2297 450 2372 
Q 425 2447 370 2484 
Q 316 2522 222 2522 
Q 147 2522 31 2478 
L -6 2578 
z
M 994 2081 
L 994 1013 
Q 994 666 1022 556 
Q 1066 375 1236 237 
Q 1406 100 1666 100 
Q 1978 100 2172 344 
Q 2425 663 2425 1241 
Q 2425 1897 2138 2250 
Q 1938 2494 1663 2494 
Q 1513 2494 1366 2419 
Q 1253 2363 994 2081 
z
" transform="scale(0.015625)"/>
       <path id="TimesNewRomanPSMT-64" d="M 2222 322 
Q 2013 103 1813 7 
Q 1613 -88 1381 -88 
Q 913 -88 563 304 
Q 213 697 213 1313 
Q 213 1928 600 2439 
Q 988 2950 1597 2950 
Q 1975 2950 2222 2709 
L 2222 3238 
Q 2222 3728 2198 3840 
Q 2175 3953 2125 3993 
Q 2075 4034 2000 4034 
Q 1919 4034 1784 3984 
L 1744 4094 
L 2597 4444 
L 2738 4444 
L 2738 1134 
Q 2738 631 2761 520 
Q 2784 409 2836 365 
Q 2888 322 2956 322 
Q 3041 322 3181 375 
L 3216 266 
L 2366 -88 
L 2222 -88 
L 2222 322 
z
M 2222 541 
L 2222 2016 
Q 2203 2228 2109 2403 
Q 2016 2578 1861 2667 
Q 1706 2756 1559 2756 
Q 1284 2756 1069 2509 
Q 784 2184 784 1559 
Q 784 928 1059 592 
Q 1334 256 1672 256 
Q 1956 256 2222 541 
z
" transform="scale(0.015625)"/>
       <path id="TimesNewRomanPSMT-69" d="M 928 4444 
Q 1059 4444 1151 4351 
Q 1244 4259 1244 4128 
Q 1244 3997 1151 3903 
Q 1059 3809 928 3809 
Q 797 3809 703 3903 
Q 609 3997 609 4128 
Q 609 4259 701 4351 
Q 794 4444 928 4444 
z
M 1188 2947 
L 1188 647 
Q 1188 378 1227 289 
Q 1266 200 1342 156 
Q 1419 113 1622 113 
L 1622 0 
L 231 0 
L 231 113 
Q 441 113 512 153 
Q 584 194 626 287 
Q 669 381 669 647 
L 669 1750 
Q 669 2216 641 2353 
Q 619 2453 572 2492 
Q 525 2531 444 2531 
Q 356 2531 231 2484 
L 188 2597 
L 1050 2947 
L 1188 2947 
z
" transform="scale(0.015625)"/>
       <path id="TimesNewRomanPSMT-63" d="M 2631 1088 
Q 2516 522 2178 217 
Q 1841 -88 1431 -88 
Q 944 -88 581 321 
Q 219 731 219 1428 
Q 219 2103 620 2525 
Q 1022 2947 1584 2947 
Q 2006 2947 2278 2723 
Q 2550 2500 2550 2259 
Q 2550 2141 2473 2067 
Q 2397 1994 2259 1994 
Q 2075 1994 1981 2113 
Q 1928 2178 1911 2362 
Q 1894 2547 1784 2644 
Q 1675 2738 1481 2738 
Q 1169 2738 978 2506 
Q 725 2200 725 1697 
Q 725 1184 976 792 
Q 1228 400 1656 400 
Q 1963 400 2206 609 
Q 2378 753 2541 1131 
L 2631 1088 
z
" transform="scale(0.015625)"/>
       <path id="TimesNewRomanPSMT-74" d="M 1031 3803 
L 1031 2863 
L 1700 2863 
L 1700 2644 
L 1031 2644 
L 1031 788 
Q 1031 509 1111 412 
Q 1191 316 1316 316 
Q 1419 316 1516 380 
Q 1613 444 1666 569 
L 1788 569 
Q 1678 263 1478 108 
Q 1278 -47 1066 -47 
Q 922 -47 784 33 
Q 647 113 581 261 
Q 516 409 516 719 
L 516 2644 
L 63 2644 
L 63 2747 
Q 234 2816 414 2980 
Q 594 3144 734 3369 
Q 806 3488 934 3803 
L 1031 3803 
z
" transform="scale(0.015625)"/>
      </defs>
      <use xlink:href="#TimesNewRomanPSMT-70"/>
      <use xlink:href="#TimesNewRomanPSMT-72" x="50"/>
      <use xlink:href="#TimesNewRomanPSMT-65" x="83.300781"/>
      <use xlink:href="#TimesNewRomanPSMT-64" x="127.685547"/>
      <use xlink:href="#TimesNewRomanPSMT-69" x="177.685547"/>
      <use xlink:href="#TimesNewRomanPSMT-63" x="205.46875"/>
      <use xlink:href="#TimesNewRomanPSMT-74" x="249.853516"/>
     </g>
    </g>
   </g>
  </g>
 </g>
 <defs>
  <clipPath id="p9ca809f5ae">
   <rect x="43.094687" y="7.2" width="558" height="332.64"/>
  </clipPath>
 </defs>
</svg>
